<svg width="685" height="689" viewBox="0 0 685 689" fill="none" xmlns="http://www.w3.org/2000/svg">
<mask id="mask0_24_578" style="mask-type:luminance" maskUnits="userSpaceOnUse" x="0" y="0" width="685" height="689">
<path d="M0.152893 0.661891L684.415 0.661835L684.415 688.262L0.152949 688.262L0.152893 0.661891Z" fill="white"/>
</mask>
<g mask="url(#mask0_24_578)">
<path fill-rule="evenodd" clip-rule="evenodd" d="M350.404 487.646C350.971 487.646 351.489 488.025 351.641 488.6C351.822 489.284 351.415 489.986 350.731 490.167C348.286 490.817 345.776 491.459 343.268 492.079C342.582 492.249 341.889 491.828 341.72 491.14C341.551 490.453 341.97 489.759 342.657 489.589C345.149 488.974 347.644 488.335 350.076 487.689C350.185 487.66 350.295 487.646 350.404 487.646Z" fill="#D3D3D3"/>
</g>
<mask id="mask1_24_578" style="mask-type:luminance" maskUnits="userSpaceOnUse" x="0" y="0" width="685" height="689">
<path d="M0.152893 0.661891L684.415 0.661835L684.415 688.262L0.152949 688.262L0.152893 0.661891Z" fill="white"/>
</mask>
<g mask="url(#mask1_24_578)">
<path fill-rule="evenodd" clip-rule="evenodd" d="M340.5 202.96C340.508 202.96 340.516 202.96 340.523 202.96C345.723 203.052 350.961 203.336 356.093 203.807C356.797 203.872 357.315 204.496 357.251 205.201C357.186 205.907 356.57 206.421 355.859 206.36C350.79 205.894 345.615 205.613 340.478 205.523C339.771 205.512 339.208 204.927 339.221 204.219C339.233 203.519 339.804 202.96 340.5 202.96ZM325.005 203.249C325.68 203.249 326.245 203.778 326.282 204.46C326.32 205.167 325.779 205.772 325.073 205.81C319.975 206.089 314.811 206.555 309.727 207.197C309.022 207.289 308.386 206.788 308.297 206.086C308.209 205.383 308.706 204.742 309.407 204.654C314.551 204.004 319.775 203.532 324.934 203.25C324.958 203.249 324.981 203.249 325.005 203.249ZM371.345 205.803C371.415 205.803 371.487 205.81 371.56 205.821C376.691 206.691 381.828 207.77 386.826 209.028C387.511 209.201 387.928 209.898 387.755 210.585C387.582 211.27 386.893 211.688 386.201 211.515C381.268 210.272 376.199 209.208 371.132 208.349C370.435 208.231 369.967 207.57 370.084 206.872C370.19 206.246 370.731 205.803 371.345 205.803ZM294.268 207.121C294.866 207.121 295.401 207.543 295.522 208.154C295.658 208.849 295.208 209.523 294.514 209.66C289.494 210.654 284.446 211.838 279.511 213.18C278.824 213.366 278.125 212.962 277.94 212.279C277.755 211.595 278.158 210.892 278.84 210.706C283.833 209.348 288.939 208.151 294.018 207.145C294.102 207.129 294.185 207.121 294.268 207.121ZM401.378 213.382C401.514 213.382 401.653 213.405 401.79 213.451C406.721 215.133 411.616 217.034 416.34 219.103C416.987 219.387 417.282 220.143 416.999 220.792C416.716 221.44 415.961 221.736 415.313 221.452C410.656 219.411 405.829 217.535 400.965 215.878C400.296 215.651 399.938 214.922 400.166 214.252C400.347 213.719 400.845 213.382 401.378 213.382ZM264.366 215.243C264.896 215.243 265.391 215.576 265.575 216.105C265.807 216.774 265.453 217.505 264.785 217.736C259.977 219.407 255.136 221.27 250.397 223.274C249.745 223.55 248.994 223.243 248.72 222.592C248.445 221.941 248.749 221.188 249.401 220.913C254.191 218.886 259.086 217.004 263.946 215.315C264.085 215.266 264.226 215.243 264.366 215.243ZM429.698 225.918C429.913 225.918 430.129 225.973 430.329 226.085C435.035 228.762 439.445 231.651 443.435 234.67C443.999 235.098 444.111 235.901 443.685 236.466C443.259 237.032 442.455 237.143 441.892 236.716C437.99 233.764 433.674 230.938 429.064 228.316C428.45 227.966 428.234 227.183 428.584 226.567C428.82 226.152 429.252 225.918 429.698 225.918ZM235.819 227.302C236.288 227.302 236.74 227.562 236.965 228.012C237.28 228.646 237.023 229.416 236.391 229.731C231.841 232.006 227.273 234.467 222.811 237.05C222.199 237.405 221.417 237.194 221.063 236.581C220.709 235.969 220.918 235.185 221.531 234.83C226.037 232.223 230.652 229.735 235.247 227.438C235.432 227.346 235.626 227.302 235.819 227.302ZM529.15 241.631C529.156 241.631 529.163 241.631 529.17 241.631C534.68 241.72 539.94 242.473 544.803 243.87C545.483 244.065 545.875 244.775 545.681 245.455C545.487 246.137 544.775 246.529 544.099 246.334C539.451 245 534.414 244.279 529.129 244.194C528.422 244.182 527.859 243.599 527.87 242.892C527.882 242.191 528.453 241.631 529.15 241.631ZM196.646 241.984C197.113 241.984 197.563 242.24 197.789 242.686C198.733 244.553 199.655 246.438 200.555 248.335C203.112 246.516 205.697 244.742 208.282 243.035C208.872 242.644 209.667 242.807 210.056 243.398C210.445 243.989 210.283 244.784 209.693 245.174C207.003 246.95 204.316 248.798 201.659 250.695C202.599 252.732 203.509 254.779 204.385 256.823C204.664 257.473 204.364 258.227 203.714 258.506C203.067 258.785 202.312 258.484 202.033 257.834C201.231 255.962 200.399 254.088 199.543 252.221C198.712 252.825 197.887 253.435 197.065 254.048C196.498 254.47 195.697 254.353 195.274 253.786C194.851 253.218 194.968 252.414 195.536 251.992C196.499 251.274 197.467 250.561 198.441 249.853C197.489 247.835 196.509 245.829 195.505 243.845C195.185 243.213 195.438 242.441 196.069 242.122C196.255 242.028 196.452 241.984 196.646 241.984ZM513.731 242.951C514.34 242.951 514.88 243.388 514.99 244.01C515.113 244.707 514.649 245.373 513.952 245.496C509.252 246.329 504.251 247.584 499.088 249.224C498.413 249.439 497.696 249.063 497.481 248.39C497.267 247.715 497.64 246.995 498.314 246.781C503.584 245.106 508.695 243.824 513.507 242.971C513.582 242.958 513.657 242.951 513.731 242.951ZM454.233 244.716C454.572 244.716 454.911 244.851 455.163 245.117C458.886 249.062 462.116 253.263 464.764 257.607C465.132 258.211 464.942 258.999 464.338 259.368C463.735 259.739 462.947 259.546 462.579 258.943C460.024 254.752 456.904 250.693 453.303 246.878C452.818 246.364 452.84 245.553 453.354 245.066C453.601 244.832 453.917 244.716 454.233 244.716ZM558.468 250.302C558.712 250.302 558.962 250.374 559.18 250.521C563.501 253.435 567.39 257.08 570.739 261.355C571.176 261.912 571.079 262.717 570.523 263.154C569.966 263.592 569.162 263.494 568.726 262.938C565.541 258.873 561.849 255.412 557.751 252.647C557.164 252.252 557.01 251.456 557.404 250.869C557.651 250.501 558.055 250.302 558.468 250.302ZM484.17 252.124C484.67 252.124 485.145 252.419 485.351 252.909C485.625 253.562 485.319 254.314 484.667 254.588C482.896 255.334 481.061 256.136 479.214 256.972C476.228 258.325 473.347 259.689 470.651 261.029C470.018 261.346 469.25 261.086 468.935 260.452C468.621 259.818 468.879 259.048 469.513 258.733C472.236 257.379 475.145 256.001 478.159 254.637C480.027 253.791 481.882 252.979 483.675 252.224C483.837 252.156 484.005 252.124 484.17 252.124ZM184.13 261.355C184.498 261.355 184.861 261.511 185.114 261.815C185.567 262.358 185.494 263.166 184.951 263.62C181.037 266.892 177.143 270.331 173.375 273.841C172.858 274.321 172.048 274.293 171.567 273.776C171.085 273.258 171.114 272.446 171.632 271.964C175.432 268.423 179.362 264.953 183.311 261.652C183.551 261.452 183.842 261.355 184.13 261.355ZM456.465 266.018C456.899 266.018 457.323 266.241 457.564 266.641C457.927 267.248 457.731 268.035 457.124 268.4C452.513 271.17 448.229 274.061 444.391 276.992C443.829 277.42 443.026 277.312 442.597 276.75C442.168 276.186 442.277 275.382 442.838 274.953C446.752 271.964 451.115 269.021 455.808 266.201C456.013 266.078 456.241 266.018 456.465 266.018ZM208.864 270.499C209.391 270.499 209.884 270.827 210.071 271.352C211.807 276.247 213.402 281.249 214.811 286.218C215.003 286.9 214.609 287.609 213.929 287.801C213.246 287.993 212.541 287.6 212.348 286.919C210.955 282.003 209.376 277.053 207.658 272.21C207.422 271.543 207.769 270.81 208.435 270.573C208.578 270.523 208.722 270.499 208.864 270.499ZM470.074 271.083C470.621 271.083 471.127 271.437 471.296 271.989C472.828 276.969 473.74 282.208 474.006 287.558C474.042 288.265 473.499 288.867 472.793 288.902C472.068 288.958 471.485 288.393 471.45 287.686C471.194 282.548 470.32 277.521 468.85 272.743C468.642 272.066 469.022 271.349 469.697 271.141C469.823 271.102 469.949 271.083 470.074 271.083ZM577.526 274.231C578.026 274.231 578.499 274.525 578.706 275.014C580.71 279.762 582.2 284.858 583.137 290.161C583.26 290.858 582.795 291.523 582.099 291.647C581.402 291.768 580.739 291.305 580.615 290.608C579.712 285.494 578.277 280.583 576.348 276.013C576.072 275.36 576.377 274.609 577.028 274.333C577.191 274.264 577.36 274.231 577.526 274.231ZM161.438 282.492C161.758 282.492 162.079 282.611 162.328 282.851C162.835 283.344 162.849 284.156 162.357 284.664C158.801 288.346 155.288 292.178 151.917 296.05C151.454 296.584 150.645 296.64 150.111 296.174C149.578 295.71 149.523 294.9 149.988 294.366C153.388 290.46 156.931 286.596 160.518 282.882C160.769 282.622 161.104 282.492 161.438 282.492ZM432.001 284.955C432.323 284.955 432.643 285.074 432.891 285.315C433.4 285.807 433.413 286.619 432.922 287.127C429.261 290.915 426.059 294.92 423.404 299.029C423.02 299.624 422.229 299.794 421.634 299.41C421.041 299.025 420.871 298.231 421.255 297.637C424 293.388 427.306 289.252 431.081 285.345C431.332 285.085 431.667 284.955 432.001 284.955ZM217.322 300.351C217.912 300.351 218.444 300.763 218.571 301.365C219.658 306.448 220.582 311.618 221.321 316.729C221.421 317.429 220.937 318.079 220.237 318.181C219.534 318.274 218.888 317.796 218.786 317.096C218.057 312.041 217.142 306.928 216.069 301.901C215.921 301.208 216.362 300.527 217.052 300.379C217.143 300.36 217.233 300.351 217.322 300.351ZM471.681 301.795C471.758 301.795 471.837 301.802 471.916 301.817C472.611 301.947 473.069 302.615 472.941 303.312C471.972 308.526 470.403 313.601 468.277 318.395C467.991 319.042 467.236 319.335 466.589 319.046C465.943 318.759 465.652 318.002 465.938 317.354C467.983 312.743 469.492 307.86 470.424 302.843C470.538 302.226 471.077 301.795 471.681 301.795ZM582.976 304.565C582.99 304.565 583.003 304.565 583.017 304.565C583.723 304.588 584.278 305.179 584.256 305.887C584.089 311.213 583.371 316.47 582.122 321.509C581.952 322.195 581.26 322.614 580.572 322.444C579.886 322.275 579.467 321.579 579.638 320.892C580.843 316.027 581.536 310.952 581.697 305.807C581.719 305.112 582.288 304.565 582.976 304.565ZM141.072 305.888C141.349 305.888 141.627 305.977 141.861 306.161C142.417 306.597 142.516 307.403 142.08 307.96C138.85 312.093 135.775 316.278 132.938 320.401C132.537 320.984 131.738 321.131 131.158 320.73C130.575 320.328 130.429 319.529 130.83 318.947C133.696 314.781 136.803 310.553 140.063 306.38C140.316 306.058 140.692 305.888 141.072 305.888ZM415.505 310.94C415.634 310.94 415.765 310.96 415.893 311C416.567 311.215 416.939 311.936 416.725 312.61C415.485 316.516 414.829 320.644 414.829 324.549C414.829 325.525 414.871 326.495 414.952 327.432C415.013 328.137 414.492 328.758 413.787 328.82C413.064 328.872 412.463 328.358 412.401 327.653C412.314 326.643 412.271 325.599 412.271 324.549C412.271 320.384 412.967 315.987 414.286 311.834C414.46 311.287 414.963 310.94 415.505 310.94ZM459.15 329.869C459.427 329.869 459.706 329.96 459.941 330.145C460.496 330.583 460.592 331.388 460.154 331.944C458.781 333.693 457.302 335.373 455.762 336.939C453.58 339.155 451.172 341.131 448.604 342.812C448.011 343.198 447.218 343.032 446.833 342.44C446.446 341.847 446.612 341.052 447.204 340.665C449.62 339.085 451.885 337.225 453.938 335.14C455.412 333.641 456.827 332.032 458.144 330.359C458.396 330.038 458.772 329.869 459.15 329.869ZM221.705 331.064C222.371 331.064 222.934 331.582 222.98 332.259C223.261 336.391 223.403 340.497 223.403 344.462C223.403 345.605 223.391 346.747 223.368 347.888C223.354 348.587 222.784 349.144 222.089 349.144C222.08 349.144 222.071 349.144 222.062 349.144C221.355 349.128 220.794 348.543 220.809 347.836C220.832 346.712 220.843 345.587 220.843 344.462C220.843 340.554 220.703 336.507 220.426 332.433C220.379 331.728 220.912 331.116 221.616 331.067C221.646 331.066 221.676 331.064 221.705 331.064ZM123.527 331.464C123.748 331.464 123.972 331.522 124.177 331.643C124.785 332.003 124.987 332.79 124.627 333.398C121.966 337.903 119.504 342.467 117.306 346.966C116.995 347.6 116.228 347.861 115.594 347.553C114.959 347.242 114.696 346.474 115.007 345.839C117.234 341.28 119.729 336.655 122.423 332.094C122.662 331.689 123.089 331.464 123.527 331.464ZM575.829 334.574C576.001 334.574 576.176 334.609 576.344 334.683C576.991 334.968 577.284 335.724 577 336.373C574.972 340.987 572.502 345.652 569.658 350.235C569.285 350.835 568.495 351.019 567.896 350.647C567.295 350.274 567.111 349.483 567.484 348.882C570.264 344.401 572.678 339.845 574.657 335.34C574.868 334.86 575.337 334.574 575.829 334.574ZM419.441 340.349C419.776 340.349 420.111 340.48 420.362 340.741C421.556 341.982 422.945 343.021 424.49 343.83C427.173 345.234 430.225 345.846 433.412 345.67C434.14 345.656 434.721 346.172 434.761 346.878C434.8 347.585 434.26 348.19 433.554 348.23C429.896 348.437 426.399 347.722 423.305 346.102C421.513 345.165 419.903 343.959 418.519 342.519C418.028 342.009 418.043 341.198 418.553 340.707C418.801 340.467 419.121 340.349 419.441 340.349ZM109.961 359.345C110.113 359.345 110.268 359.373 110.418 359.431C111.079 359.684 111.409 360.425 111.156 361.086C109.301 365.939 107.691 370.859 106.37 375.71C106.185 376.394 105.482 376.795 104.799 376.611C104.117 376.425 103.715 375.719 103.901 375.036C105.243 370.103 106.88 365.101 108.766 360.17C108.96 359.659 109.446 359.345 109.961 359.345ZM559.639 360.957C559.916 360.957 560.196 361.047 560.431 361.232C560.986 361.671 561.08 362.477 560.642 363.032C557.59 366.906 554.155 370.883 550.433 374.858C549.95 375.373 549.138 375.399 548.624 374.916C548.109 374.431 548.083 373.62 548.567 373.103C552.239 369.183 555.625 365.26 558.633 361.444C558.885 361.123 559.261 360.957 559.639 360.957ZM220.982 362.06C221.035 362.06 221.089 362.063 221.143 362.071C221.844 362.158 222.342 362.799 222.254 363.502C221.589 368.806 220.621 373.989 219.376 378.908C219.202 379.593 218.508 380.009 217.821 379.835C217.136 379.661 216.721 378.964 216.895 378.278C218.113 373.461 219.062 368.383 219.714 363.182C219.795 362.534 220.346 362.06 220.982 362.06ZM538.529 383.667C538.868 383.667 539.209 383.801 539.46 384.069C539.945 384.584 539.921 385.395 539.407 385.881C537.509 387.672 535.471 389.546 533.35 391.451C531.516 393.097 529.664 394.731 527.849 396.307C527.316 396.768 526.506 396.712 526.044 396.178C525.582 395.643 525.639 394.833 526.174 394.369C527.977 392.802 529.817 391.178 531.642 389.542C533.747 387.651 535.768 385.792 537.651 384.015C537.898 383.782 538.214 383.667 538.529 383.667ZM102.122 389.305C102.17 389.305 102.219 389.307 102.268 389.313C102.97 389.393 103.475 390.028 103.396 390.731C103.048 393.809 102.871 396.863 102.87 399.808C102.87 401.906 102.961 403.981 103.139 405.973C103.202 406.678 102.683 407.301 101.979 407.364C101.27 407.426 100.652 406.907 100.589 406.202C100.405 404.133 100.311 401.982 100.311 399.808C100.312 396.767 100.494 393.617 100.852 390.442C100.926 389.788 101.479 389.305 102.122 389.305ZM213.291 392.043C213.453 392.043 213.618 392.074 213.777 392.141C214.431 392.411 214.743 393.16 214.473 393.814C213.077 397.204 211.497 400.52 209.774 403.67C209.014 405.062 208.197 406.46 207.345 407.823C206.969 408.424 206.18 408.604 205.581 408.23C204.982 407.854 204.8 407.063 205.175 406.463C206.001 405.142 206.792 403.788 207.528 402.44C209.206 399.371 210.747 396.14 212.107 392.837C212.31 392.342 212.787 392.043 213.291 392.043ZM515.12 404.016C515.494 404.016 515.864 404.179 516.117 404.492C516.561 405.044 516.474 405.851 515.924 406.295C511.906 409.54 507.777 412.757 503.652 415.855C503.087 416.279 502.284 416.165 501.861 415.598C501.437 415.032 501.552 414.228 502.117 413.804C506.218 410.724 510.322 407.526 514.317 404.3C514.554 404.108 514.838 404.016 515.12 404.016ZM196.874 418.193C197.183 418.193 197.493 418.304 197.738 418.53C198.259 419.008 198.295 419.819 197.816 420.341C194.254 424.231 190.338 427.79 186.18 430.921C185.615 431.347 184.813 431.234 184.388 430.667C183.962 430.101 184.077 429.297 184.641 428.872C188.675 425.836 192.473 422.382 195.93 418.608C196.183 418.333 196.528 418.193 196.874 418.193ZM105.313 419.887C105.82 419.887 106.3 420.191 106.501 420.692C108.463 425.587 111.216 429.76 114.682 433.096C115.191 433.586 115.207 434.398 114.718 434.908C114.228 435.418 113.417 435.434 112.908 434.944C109.179 431.356 106.224 426.881 104.126 421.647C103.862 420.99 104.181 420.244 104.837 419.979C104.992 419.917 105.154 419.887 105.313 419.887ZM490.321 422.642C490.726 422.642 491.124 422.834 491.373 423.191C491.778 423.773 491.635 424.571 491.055 424.976C486.831 427.924 482.488 430.843 478.145 433.652C477.549 434.037 476.758 433.864 476.375 433.271C475.992 432.676 476.163 431.883 476.756 431.498C481.074 428.705 485.392 425.803 489.591 422.873C489.814 422.717 490.069 422.642 490.321 422.642ZM172.194 436.681C172.671 436.681 173.128 436.949 173.348 437.409C173.654 438.047 173.384 438.813 172.747 439.118C167.898 441.444 162.896 443.198 157.878 444.333C157.189 444.488 156.504 444.056 156.348 443.365C156.192 442.674 156.625 441.988 157.314 441.832C162.146 440.74 166.966 439.049 171.642 436.807C171.82 436.721 172.008 436.681 172.194 436.681ZM464.283 439.489C464.718 439.489 465.143 439.712 465.383 440.113C465.746 440.721 465.548 441.508 464.942 441.871C460.523 444.517 455.987 447.126 451.461 449.627C450.842 449.969 450.063 449.743 449.721 449.124C449.38 448.503 449.605 447.724 450.224 447.382C454.725 444.896 459.234 442.301 463.628 439.672C463.834 439.548 464.06 439.489 464.283 439.489ZM126.997 440.63C127.134 440.63 127.275 440.653 127.412 440.7C130.415 441.731 133.701 442.472 137.179 442.903C138.85 443.11 140.557 443.243 142.253 443.299C142.96 443.322 143.514 443.914 143.491 444.622C143.468 445.33 142.889 445.895 142.17 445.861C140.396 445.803 138.611 445.664 136.865 445.447C133.212 444.995 129.752 444.214 126.582 443.125C125.913 442.896 125.557 442.167 125.786 441.497C125.968 440.965 126.465 440.63 126.997 440.63ZM437.141 454.482C437.607 454.482 438.057 454.74 438.283 455.185C438.602 455.816 438.35 456.588 437.72 456.908C433.119 459.245 428.414 461.533 423.735 463.709C423.095 464.004 422.333 463.727 422.036 463.085C421.738 462.443 422.017 461.681 422.658 461.383C427.31 459.22 431.988 456.946 436.562 454.622C436.748 454.528 436.945 454.482 437.141 454.482ZM409.022 467.555C409.522 467.555 409.995 467.848 410.202 468.338C410.478 468.99 410.172 469.742 409.522 470.017C404.773 472.027 399.92 473.981 395.098 475.827C394.441 476.078 393.699 475.748 393.445 475.087C393.193 474.425 393.524 473.685 394.184 473.432C398.979 471.598 403.804 469.653 408.524 467.656C408.687 467.587 408.856 467.555 409.022 467.555ZM380.066 478.632C380.598 478.632 381.095 478.966 381.277 479.499C381.506 480.168 381.15 480.898 380.481 481.128C375.602 482.801 370.624 484.41 365.686 485.91C365.009 486.113 364.295 485.734 364.09 485.056C363.885 484.379 364.267 483.663 364.943 483.457C369.853 481.966 374.801 480.365 379.652 478.702C379.789 478.655 379.929 478.632 380.066 478.632Z" fill="#D3D3D3"/>
</g>
<mask id="mask2_24_578" style="mask-type:luminance" maskUnits="userSpaceOnUse" x="0" y="0" width="685" height="689">
<path d="M0.152893 0.661891L684.415 0.661835L684.415 688.262L0.152949 688.262L0.152893 0.661891Z" fill="white"/>
</mask>
<g mask="url(#mask2_24_578)">
<path fill-rule="evenodd" clip-rule="evenodd" d="M185.099 221.629C185.523 221.629 185.938 221.84 186.182 222.226C187.546 224.384 188.901 226.604 190.209 228.824C190.568 229.434 190.365 230.22 189.756 230.58C189.147 230.938 188.363 230.736 188.004 230.127C186.71 227.93 185.369 225.732 184.019 223.597C183.641 222.999 183.818 222.207 184.416 221.828C184.628 221.693 184.865 221.629 185.099 221.629Z" fill="#D3D3D3"/>
</g>
</svg>
