<svg width="772" height="919" viewBox="0 0 772 919" fill="none" xmlns="http://www.w3.org/2000/svg">
<mask id="mask0_70_272" style="mask-type:luminance" maskUnits="userSpaceOnUse" x="-145" y="0" width="917" height="919">
<path d="M156.145 918.46L771.291 618.776L470.146 0.629557L-145 300.313L156.145 918.46Z" fill="white"/>
</mask>
<g mask="url(#mask0_70_272)">
<path fill-rule="evenodd" clip-rule="evenodd" d="M257.736 327.267C258.245 327.019 258.545 326.451 258.43 325.868C258.293 325.173 257.62 324.721 256.926 324.857C254.443 325.344 251.905 325.866 249.379 326.407C248.688 326.554 248.249 327.237 248.398 327.929C248.547 328.621 249.228 329.062 249.92 328.913C252.429 328.375 254.953 327.856 257.422 327.372C257.532 327.351 257.638 327.314 257.736 327.267Z" fill="#D3D3D3"/>
</g>
<mask id="mask1_70_272" style="mask-type:luminance" maskUnits="userSpaceOnUse" x="-145" y="0" width="917" height="919">
<path d="M156.145 918.46L771.291 618.776L470.146 0.629557L-145 300.313L156.145 918.46Z" fill="white"/>
</mask>
<g mask="url(#mask1_70_272)">
<path fill-rule="evenodd" clip-rule="evenodd" d="M373.514 587.535C373.522 587.531 373.529 587.528 373.536 587.525C378.17 585.165 382.754 582.616 387.162 579.944C387.766 579.577 387.959 578.789 387.592 578.183C387.225 577.578 386.446 577.386 385.833 577.751C381.48 580.39 376.951 582.909 372.373 585.24C371.742 585.56 371.492 586.332 371.813 586.963C372.131 587.587 372.889 587.84 373.514 587.535ZM359.459 594.061C360.065 593.766 360.341 593.043 360.076 592.413C359.801 591.761 359.049 591.454 358.398 591.729C353.692 593.711 348.846 595.554 343.994 597.203C343.32 597.43 342.968 598.159 343.196 598.828C343.424 599.499 344.151 599.857 344.82 599.629C349.729 597.961 354.633 596.097 359.393 594.092C359.416 594.082 359.437 594.072 359.459 594.061ZM399.999 571.47C400.062 571.439 400.124 571.402 400.184 571.36C404.417 568.331 408.562 565.11 412.504 561.79C413.044 561.335 413.113 560.526 412.658 559.984C412.201 559.444 411.4 559.37 410.853 559.828C406.963 563.106 402.871 566.283 398.693 569.274C398.118 569.686 397.986 570.485 398.397 571.062C398.767 571.578 399.448 571.739 399.999 571.47ZM330.13 604.043C330.668 603.781 330.964 603.166 330.805 602.564C330.623 601.88 329.923 601.471 329.239 601.652C324.291 602.957 319.234 604.103 314.21 605.058C313.511 605.192 313.06 605.861 313.192 606.556C313.325 607.252 313.996 607.708 314.69 607.576C319.773 606.61 324.889 605.451 329.895 604.13C329.977 604.108 330.056 604.079 330.13 604.043ZM423.679 551.503C423.801 551.443 423.917 551.362 424.019 551.26C427.716 547.589 431.284 543.737 434.624 539.807C435.081 539.268 435.016 538.46 434.477 538C433.939 537.542 433.13 537.606 432.673 538.145C429.379 542.02 425.861 545.82 422.214 549.44C421.713 549.937 421.71 550.75 422.208 551.252C422.605 551.652 423.2 551.736 423.679 551.503ZM299.691 609.836C300.167 609.604 300.467 609.088 300.401 608.532C300.316 607.829 299.678 607.327 298.976 607.412C293.922 608.015 288.754 608.461 283.616 608.735C282.909 608.772 282.368 609.377 282.407 610.082C282.445 610.788 283.048 611.332 283.754 611.293C288.949 611.018 294.173 610.566 299.282 609.956C299.428 609.939 299.566 609.897 299.691 609.836ZM443.649 527.83C443.841 527.736 444.012 527.592 444.143 527.403C447.2 522.936 449.899 518.407 452.164 513.945C452.484 513.315 452.233 512.543 451.603 512.222C450.972 511.9 450.201 512.152 449.882 512.782C447.666 517.146 445.024 521.576 442.028 525.952C441.63 526.536 441.778 527.334 442.362 527.734C442.756 528.005 443.248 528.025 443.649 527.83ZM268.746 611.498C269.168 611.292 269.461 610.861 269.465 610.358C269.472 609.65 268.904 609.071 268.197 609.064C263.111 609.012 257.925 608.8 252.783 608.432C252.077 608.381 251.467 608.913 251.417 609.619C251.367 610.325 251.898 610.938 252.604 610.988C257.798 611.359 263.036 611.574 268.173 611.627C268.379 611.628 268.573 611.582 268.746 611.498ZM526.173 470.148C526.178 470.146 526.185 470.142 526.192 470.139C531.105 467.646 535.504 464.665 539.264 461.28C539.79 460.807 539.832 459.996 539.359 459.47C538.886 458.942 538.075 458.901 537.552 459.373C533.958 462.608 529.746 465.461 525.032 467.853C524.401 468.173 524.15 468.944 524.47 469.575C524.788 470.2 525.547 470.453 526.173 470.148ZM227.1 615.456C227.52 615.252 227.812 614.824 227.82 614.324C227.851 612.232 227.855 610.134 227.832 608.034C230.929 608.55 234.029 609.012 237.101 609.415C237.802 609.507 238.445 609.013 238.536 608.311C238.627 607.61 238.133 606.966 237.432 606.874C234.236 606.455 231.011 605.971 227.792 605.429C227.744 603.186 227.666 600.947 227.559 598.726C227.525 598.02 226.924 597.473 226.219 597.507C225.514 597.54 224.967 598.141 225.001 598.847C225.1 600.881 225.173 602.93 225.221 604.984C224.209 604.804 223.2 604.618 222.193 604.427C221.498 604.295 220.83 604.752 220.698 605.447C220.566 606.142 221.023 606.814 221.719 606.945C222.899 607.169 224.082 607.386 225.267 607.595C225.295 609.826 225.293 612.06 225.259 614.283C225.249 614.991 225.814 615.574 226.521 615.585C226.729 615.588 226.926 615.541 227.1 615.456ZM511.733 475.714C512.281 475.447 512.575 474.817 512.401 474.21C512.206 473.53 511.498 473.135 510.818 473.33C506.227 474.639 501.182 475.701 495.822 476.488C495.121 476.591 494.641 477.242 494.743 477.941C494.846 478.642 495.497 479.126 496.197 479.023C501.667 478.221 506.824 477.135 511.523 475.794C511.597 475.773 511.667 475.746 511.733 475.714ZM457.472 500.185C457.777 500.037 458.023 499.767 458.132 499.417C459.752 494.24 460.816 489.049 461.293 483.985C461.36 483.28 460.844 482.655 460.139 482.587C459.435 482.519 458.811 483.037 458.744 483.74C458.283 488.627 457.255 493.642 455.689 498.649C455.478 499.323 455.853 500.043 456.528 500.256C456.853 500.358 457.188 500.324 457.472 500.185ZM548.732 449.513C548.952 449.405 549.144 449.232 549.277 449.003C551.885 444.491 553.784 439.511 554.923 434.202C555.072 433.51 554.632 432.828 553.941 432.679C553.248 432.529 552.568 432.969 552.42 433.66C551.337 438.709 549.534 443.438 547.06 447.718C546.706 448.33 546.916 449.114 547.528 449.469C547.911 449.691 548.361 449.693 548.732 449.513ZM481.141 480.414C481.591 480.195 481.888 479.722 481.859 479.192C481.819 478.484 481.215 477.943 480.509 477.981C478.59 478.087 476.589 478.169 474.562 478.226C471.286 478.318 468.098 478.353 465.087 478.329C464.38 478.322 463.803 478.892 463.798 479.6C463.793 480.308 464.362 480.886 465.069 480.892C468.111 480.917 471.33 480.882 474.636 480.788C476.686 480.73 478.71 480.648 480.651 480.541C480.827 480.531 480.992 480.487 481.141 480.414ZM207.365 603.523C207.695 603.362 207.953 603.062 208.048 602.679C208.217 601.992 207.798 601.297 207.111 601.127C202.159 599.899 197.152 598.514 192.228 597.008C191.553 596.803 190.836 597.183 190.63 597.859C190.424 598.535 190.805 599.252 191.482 599.46C196.45 600.978 201.502 602.376 206.498 603.615C206.801 603.69 207.106 603.649 207.365 603.523ZM450.149 480.058C450.539 479.867 450.823 479.482 450.864 479.016C450.925 478.311 450.403 477.69 449.698 477.628C444.34 477.157 439.223 476.434 434.488 475.48C433.796 475.341 433.121 475.79 432.981 476.483C432.843 477.178 433.293 477.854 433.986 477.993C438.813 478.966 444.024 479.701 449.478 480.181C449.717 480.202 449.947 480.156 450.149 480.058ZM225.596 584.47C226.069 584.239 226.369 583.728 226.307 583.175C225.723 578.013 224.966 572.818 224.057 567.734C223.932 567.037 223.266 566.572 222.571 566.697C221.873 566.824 221.412 567.486 221.536 568.182C222.437 573.213 223.185 578.353 223.762 583.459C223.841 584.163 224.475 584.67 225.177 584.591C225.327 584.574 225.468 584.532 225.596 584.47ZM460.165 469.543C460.657 469.304 460.957 468.764 460.867 468.194C460.063 463.046 458.589 457.937 456.485 453.011C456.207 452.36 455.455 452.056 454.805 452.334C454.129 452.601 453.852 453.365 454.131 454.015C456.151 458.746 457.566 463.649 458.338 468.588C458.448 469.287 459.103 469.766 459.801 469.657C459.931 469.637 460.053 469.598 460.165 469.543ZM555.385 419.653C555.834 419.435 556.131 418.964 556.102 418.433C555.825 413.287 554.932 408.053 553.452 402.875C553.257 402.195 552.549 401.801 551.868 401.995C551.189 402.191 550.795 402.897 550.99 403.578C552.417 408.571 553.278 413.614 553.546 418.568C553.583 419.275 554.187 419.817 554.893 419.78C555.069 419.771 555.236 419.726 555.385 419.653ZM177.707 594.46C177.996 594.319 178.231 594.072 178.35 593.747C178.59 593.081 178.247 592.346 177.582 592.104C172.772 590.351 167.936 588.446 163.21 586.44C162.56 586.163 161.808 586.467 161.532 587.12C161.256 587.771 161.561 588.523 162.213 588.8C166.98 590.822 171.858 592.744 176.709 594.512C177.048 594.635 177.407 594.606 177.707 594.46ZM419.863 473.748C420.152 473.607 420.388 473.36 420.505 473.035C420.747 472.369 420.404 471.633 419.739 471.392C414.789 469.589 410.156 467.391 405.97 464.86C405.364 464.493 404.579 464.687 404.212 465.293C403.847 465.9 404.042 466.687 404.647 467.053C408.976 469.671 413.76 471.941 418.865 473.8C419.204 473.923 419.562 473.894 419.863 473.748ZM220.125 553.929C220.655 553.671 220.953 553.068 220.804 552.47C219.554 547.425 218.121 542.373 216.547 537.454C216.331 536.78 215.61 536.408 214.936 536.623C214.263 536.847 213.892 537.56 214.108 538.234C215.666 543.098 217.082 548.095 218.319 553.084C218.49 553.772 219.184 554.191 219.87 554.022C219.96 553.999 220.045 553.968 220.125 553.929ZM448.159 441.23C448.229 441.197 448.296 441.155 448.361 441.108C448.929 440.686 449.048 439.885 448.627 439.315C445.473 435.052 441.84 431.177 437.829 427.798C437.288 427.342 436.481 427.408 436.026 427.952C435.571 428.493 435.641 429.301 436.182 429.758C440.04 433.008 443.535 436.736 446.57 440.839C446.943 441.343 447.616 441.495 448.159 441.23ZM546.999 389.997C547.011 389.991 547.024 389.985 547.036 389.979C547.661 389.649 547.9 388.874 547.571 388.248C545.088 383.532 542.14 379.122 538.811 375.138C538.357 374.596 537.552 374.522 537.007 374.976C536.465 375.429 536.394 376.238 536.848 376.781C540.061 380.626 542.907 384.886 545.306 389.441C545.63 390.055 546.38 390.298 546.999 389.997ZM149.152 582.346C149.401 582.224 149.612 582.023 149.741 581.755C150.05 581.119 149.786 580.352 149.15 580.042C144.437 577.741 139.839 575.326 135.483 572.861C134.867 572.513 134.085 572.731 133.739 573.345C133.391 573.962 133.61 574.744 134.225 575.092C138.626 577.582 143.27 580.022 148.029 582.345C148.397 582.524 148.81 582.512 149.152 582.346ZM393.652 457.612C393.768 457.556 393.877 457.481 393.975 457.388C394.486 456.9 394.505 456.088 394.018 455.576C391.193 452.608 388.794 449.184 387.084 445.674C386.657 444.796 386.27 443.906 385.932 443.028C385.678 442.368 384.938 442.038 384.277 442.291C383.604 442.56 383.289 443.286 383.542 443.946C383.906 444.893 384.324 445.851 384.784 446.794C386.608 450.538 389.16 454.187 392.165 457.343C392.56 457.758 393.165 457.85 393.652 457.612ZM424.598 421.48C424.847 421.358 425.059 421.155 425.188 420.885C425.496 420.249 425.229 419.483 424.592 419.174C422.591 418.204 420.526 417.341 418.456 416.608C415.524 415.571 412.494 414.85 409.449 414.464C408.747 414.376 408.107 414.873 408.02 415.574C407.932 416.276 408.429 416.918 409.131 417.007C411.994 417.369 414.846 418.049 417.605 419.024C419.586 419.726 421.563 420.553 423.479 421.48C423.847 421.659 424.258 421.645 424.598 421.48ZM210.614 524.398C211.213 524.106 211.492 523.394 211.237 522.765C209.68 518.928 208.009 515.175 206.272 511.61C205.772 510.583 205.261 509.561 204.741 508.546C204.422 507.924 203.665 507.673 203.041 507.977C203.033 507.981 203.024 507.985 203.017 507.989C202.388 508.312 202.14 509.084 202.463 509.713C202.976 510.714 203.478 511.72 203.971 512.731C205.683 516.245 207.329 519.944 208.865 523.727C209.131 524.383 209.878 524.699 210.533 524.434C210.56 524.423 210.588 524.411 210.614 524.398ZM122.177 567.038C122.376 566.941 122.552 566.79 122.683 566.592C123.072 566.002 122.909 565.206 122.32 564.817C117.954 561.932 113.742 558.908 109.796 555.826C109.238 555.392 108.435 555.493 107.999 556.048C107.565 556.605 107.665 557.411 108.222 557.846C112.221 560.969 116.49 564.034 120.909 566.955C121.302 567.214 121.784 567.229 122.177 567.038ZM527.431 366.149C527.586 366.073 527.728 365.965 527.846 365.826C528.303 365.286 528.236 364.478 527.696 364.019C523.852 360.759 519.589 357.647 515.025 354.773C514.426 354.397 513.636 354.577 513.26 355.174C512.883 355.773 513.064 356.564 513.663 356.941C518.125 359.752 522.29 362.791 526.042 365.973C526.442 366.313 526.989 366.364 527.431 366.149ZM384.31 429.45C384.611 429.304 384.855 429.039 384.966 428.694C385.496 427.056 386.29 425.513 387.325 424.109C389.122 421.672 391.598 419.785 394.54 418.548C395.2 418.241 395.497 417.523 395.223 416.87C394.949 416.218 394.199 415.91 393.546 416.184C390.167 417.6 387.337 419.774 385.264 422.586C384.064 424.213 383.145 426.002 382.531 427.903C382.313 428.576 382.682 429.299 383.355 429.517C383.684 429.624 384.023 429.59 384.31 429.45ZM97.7705 547.914C97.9073 547.847 98.0348 547.755 98.1442 547.637C98.6275 547.12 98.5993 546.309 98.0823 545.826C94.2894 542.276 90.6871 538.558 87.3755 534.774C86.9097 534.241 86.1021 534.188 85.5686 534.653C85.0369 535.119 84.9841 535.929 85.4503 536.462C88.8176 540.309 92.4802 544.089 96.3354 547.696C96.7336 548.07 97.3077 548.139 97.7705 547.914ZM501.321 349.522C501.571 349.4 501.783 349.197 501.913 348.927C502.22 348.29 501.952 347.524 501.315 347.216C496.874 345.071 492.044 343 486.958 341.057C486.297 340.805 485.556 341.137 485.306 341.797C485.055 342.458 485.387 343.199 486.048 343.451C491.067 345.368 495.829 347.411 500.204 349.524C500.571 349.702 500.982 349.688 501.321 349.522ZM196.389 496.85C196.437 496.827 196.483 496.801 196.529 496.77C197.121 496.384 197.287 495.591 196.901 494.997C193.98 490.52 190.839 486.284 187.566 482.407C187.109 481.868 186.303 481.797 185.762 482.255C185.222 482.711 185.155 483.519 185.612 484.06C188.817 487.857 191.893 492.007 194.758 496.396C195.114 496.943 195.817 497.129 196.389 496.85ZM472.398 338.351C472.703 338.203 472.95 337.933 473.059 337.581C473.269 336.906 472.892 336.187 472.217 335.976C469.727 335.197 467.073 334.405 464.332 333.622C461.963 332.945 459.583 332.287 457.261 331.665C456.58 331.484 455.876 331.889 455.695 332.572C455.513 333.255 455.919 333.958 456.603 334.141C458.911 334.76 461.276 335.414 463.633 336.086C466.354 336.864 468.985 337.65 471.456 338.423C471.781 338.524 472.114 338.489 472.398 338.351ZM77.6025 524.414C77.6458 524.392 77.6881 524.369 77.7295 524.342C78.3259 523.963 78.5024 523.171 78.123 522.574C76.4617 519.959 74.9654 517.291 73.6752 514.644C72.756 512.757 71.9291 510.852 71.2163 508.984C70.9645 508.322 70.2249 507.99 69.5638 508.241C68.9 508.496 68.5716 509.233 68.8244 509.895C69.5644 511.835 70.4221 513.81 71.3744 515.765C72.7068 518.498 74.2501 521.25 75.9622 523.947C76.3153 524.503 77.0242 524.695 77.6025 524.414ZM176.343 473.264C176.489 473.193 176.623 473.092 176.737 472.963C177.207 472.434 177.159 471.624 176.63 471.154C173.891 468.718 171.018 466.429 168.089 464.351C166.796 463.433 165.449 462.535 164.087 461.682C163.485 461.306 162.697 461.491 162.322 462.089C161.949 462.689 162.131 463.48 162.731 463.855C164.052 464.681 165.357 465.551 166.609 466.441C169.461 468.465 172.261 470.695 174.931 473.069C175.33 473.425 175.89 473.485 176.343 473.264ZM442.441 330.31C442.777 330.146 443.038 329.837 443.129 329.445C443.287 328.754 442.855 328.067 442.166 327.909C437.132 326.751 432.012 325.668 426.947 324.689C426.253 324.556 425.581 325.01 425.449 325.705C425.315 326.399 425.771 327.071 426.465 327.205C431.5 328.178 436.591 329.255 441.595 330.406C441.891 330.475 442.188 330.433 442.441 330.31ZM150.132 456.945C150.409 456.81 150.639 456.575 150.761 456.264C151.02 455.606 150.696 454.861 150.038 454.602C145.132 452.664 140.053 451.18 134.943 450.186C134.249 450.051 133.577 450.504 133.443 451.2C133.309 451.895 133.764 452.567 134.457 452.702C139.414 453.666 144.34 455.107 149.101 456.986C149.449 457.122 149.82 457.097 150.132 456.945ZM67.0766 495.523C67.5325 495.301 67.8312 494.817 67.7929 494.279C67.4125 489.019 68.0596 484.062 69.7143 479.545C69.9575 478.881 69.6166 478.145 68.953 477.9C68.2894 477.656 67.5534 477.997 67.3103 478.661C65.5295 483.519 64.833 488.836 65.2388 494.461C65.2901 495.167 65.9027 495.698 66.6084 495.648C66.7755 495.637 66.9336 495.593 67.0766 495.523ZM411.99 324.426C412.354 324.249 412.628 323.902 412.695 323.472C412.804 322.772 412.326 322.117 411.627 322.006C406.539 321.206 401.356 320.484 396.221 319.861C395.517 319.776 394.882 320.277 394.797 320.979C394.713 321.681 395.214 322.32 395.916 322.405C401.021 323.025 406.174 323.743 411.232 324.538C411.501 324.581 411.763 324.537 411.99 324.426ZM119.847 451.134C120.276 450.925 120.57 450.484 120.566 449.974C120.561 449.266 119.983 448.696 119.277 448.7C113.899 448.733 108.634 449.347 103.626 450.525C102.939 450.687 102.512 451.375 102.674 452.065C102.837 452.754 103.526 453.182 104.214 453.02C109.036 451.886 114.11 451.295 119.296 451.263C119.493 451.262 119.68 451.216 119.847 451.134ZM381.203 320.684C381.595 320.494 381.879 320.107 381.919 319.642C381.978 318.936 381.456 318.315 380.752 318.254C375.621 317.811 370.401 317.452 365.236 317.186C364.53 317.15 363.928 317.694 363.893 318.4C363.858 319.108 364.401 319.71 365.107 319.746C370.243 320.01 375.433 320.368 380.534 320.807C380.773 320.829 381.003 320.782 381.203 320.684ZM77.4858 467.378C77.6089 467.318 77.7257 467.237 77.8288 467.134C80.0766 464.891 82.7061 462.786 85.644 460.875C87.0554 459.958 88.5317 459.09 90.0324 458.297C90.6577 457.967 90.8962 457.192 90.5657 456.566C90.2349 455.94 89.4668 455.685 88.8355 456.031C87.2663 456.86 85.7223 457.767 84.2471 458.726C81.1611 460.732 78.3934 462.95 76.02 465.317C75.5194 465.816 75.5188 466.627 76.0179 467.129C76.4145 467.528 77.0079 467.611 77.4858 467.378ZM350.236 319.093C350.655 318.889 350.947 318.46 350.955 317.961C350.966 317.254 350.401 316.67 349.694 316.659C344.534 316.573 339.303 316.577 334.144 316.67C333.439 316.684 332.875 317.267 332.889 317.975C332.903 318.682 333.487 319.245 334.193 319.233C339.323 319.14 344.525 319.135 349.655 319.221C349.863 319.225 350.06 319.179 350.236 319.093ZM319.232 319.656C319.681 319.437 319.979 318.966 319.95 318.436C319.912 317.728 319.308 317.186 318.603 317.224C313.454 317.496 308.235 317.865 303.092 318.317C302.39 318.38 301.868 319.001 301.93 319.707C301.993 320.412 302.615 320.933 303.319 320.871C308.433 320.42 313.622 320.055 318.74 319.783C318.917 319.774 319.083 319.729 319.232 319.656ZM288.35 322.38C288.828 322.146 289.128 321.628 289.058 321.07C288.972 320.368 288.332 319.868 287.629 319.954C282.511 320.587 277.331 321.32 272.235 322.134C271.537 322.248 271.061 322.902 271.174 323.601C271.286 324.3 271.943 324.776 272.641 324.665C277.708 323.855 282.858 323.127 287.946 322.498C288.091 322.48 288.227 322.44 288.35 322.38Z" fill="#D3D3D3"/>
</g>
<mask id="mask2_70_272" style="mask-type:luminance" maskUnits="userSpaceOnUse" x="-145" y="0" width="917" height="919">
<path d="M156.145 918.46L771.291 618.776L470.146 0.629557L-145 300.313L156.145 918.46Z" fill="white"/>
</mask>
<g mask="url(#mask2_70_272)">
<path fill-rule="evenodd" clip-rule="evenodd" d="M225.634 638.812C226.016 638.626 226.296 638.255 226.346 637.801C226.627 635.264 226.873 632.674 227.077 630.105C227.132 629.4 226.606 628.782 225.901 628.725C225.196 628.67 224.58 629.195 224.524 629.9C224.323 632.442 224.08 635.005 223.801 637.516C223.723 638.219 224.23 638.854 224.933 638.932C225.182 638.961 225.424 638.915 225.634 638.812Z" fill="#D3D3D3"/>
</g>
</svg>
