<svg width="792" height="856" viewBox="0 0 792 856" fill="none" xmlns="http://www.w3.org/2000/svg">
<mask id="mask0_93_901" style="mask-type:luminance" maskUnits="userSpaceOnUse" x="0" y="0" width="854" height="856">
<path d="M656.057 0.756587L0.491798 196.839L197.531 855.603L853.097 659.52L656.057 0.756587Z" fill="white"/>
</mask>
<g mask="url(#mask0_93_901)">
<path fill-rule="evenodd" clip-rule="evenodd" d="M460.046 567.686C459.503 567.848 459.115 568.36 459.134 568.954C459.157 569.662 459.747 570.217 460.455 570.195C462.983 570.117 465.573 570.013 468.152 569.888C468.859 569.855 469.402 569.252 469.367 568.545C469.332 567.838 468.732 567.293 468.025 567.327C465.461 567.452 462.887 567.555 460.372 567.633C460.26 567.636 460.15 567.655 460.046 567.686Z" fill="#D3D3D3"/>
</g>
<mask id="mask1_93_901" style="mask-type:luminance" maskUnits="userSpaceOnUse" x="0" y="0" width="854" height="856">
<path d="M656.057 0.756587L0.491798 196.839L197.531 855.603L853.097 659.52L656.057 0.756587Z" fill="white"/>
</mask>
<g mask="url(#mask1_93_901)">
<path fill-rule="evenodd" clip-rule="evenodd" d="M387.955 292.101C387.947 292.103 387.94 292.105 387.932 292.108C382.977 293.685 378.04 295.459 373.258 297.381C372.602 297.645 372.285 298.392 372.548 299.049C372.813 299.706 373.551 300.022 374.214 299.76C378.937 297.861 383.814 296.109 388.71 294.55C389.384 294.337 389.756 293.616 389.541 292.941C389.329 292.274 388.621 291.902 387.955 292.101ZM402.882 287.938C402.236 288.131 401.847 288.8 402.006 289.464C402.172 290.152 402.864 290.577 403.551 290.411C408.516 289.217 413.596 288.184 418.651 287.342C419.353 287.228 419.818 286.565 419.703 285.868C419.586 285.169 418.926 284.698 418.229 284.814C413.115 285.666 407.974 286.71 402.951 287.918C402.927 287.924 402.905 287.93 402.882 287.938ZM359.218 303.664C359.15 303.684 359.083 303.711 359.017 303.743C354.35 306.046 349.738 308.552 345.31 311.19C344.703 311.552 344.504 312.339 344.866 312.947C345.229 313.554 346.008 313.757 346.622 313.394C350.991 310.789 355.543 308.317 360.151 306.042C360.785 305.729 361.045 304.962 360.733 304.326C360.451 303.757 359.806 303.488 359.218 303.664ZM433.44 282.839C432.867 283.01 432.475 283.569 432.535 284.188C432.603 284.893 433.228 285.41 433.932 285.343C439.027 284.856 444.202 284.544 449.314 284.415C450.026 284.396 450.58 283.81 450.561 283.102C450.543 282.394 449.955 281.835 449.249 281.853C444.076 281.983 438.841 282.299 433.687 282.791C433.601 282.799 433.519 282.815 433.44 282.839ZM332.616 319.532C332.486 319.571 332.359 319.632 332.241 319.716C327.999 322.74 323.854 325.963 319.921 329.3C319.383 329.758 319.317 330.566 319.774 331.107C320.23 331.646 321.039 331.714 321.578 331.256C325.455 327.966 329.542 324.786 333.727 321.805C334.303 321.395 334.437 320.594 334.027 320.017C333.7 319.558 333.127 319.379 332.616 319.532ZM464.416 282.052C463.908 282.204 463.528 282.665 463.504 283.224C463.474 283.931 464.023 284.53 464.729 284.561C469.814 284.784 474.986 285.181 480.1 285.743C480.804 285.821 481.436 285.312 481.511 284.61C481.588 283.906 481.081 283.273 480.378 283.196C475.208 282.627 469.979 282.226 464.839 282C464.691 281.994 464.549 282.012 464.416 282.052ZM309.076 339.657C308.871 339.718 308.679 339.833 308.519 339.998C304.778 343.911 301.381 347.943 298.424 351.979C298.006 352.549 298.128 353.352 298.698 353.771C299.269 354.191 300.071 354.067 300.488 353.496C303.38 349.55 306.705 345.605 310.37 341.772C310.859 341.261 310.841 340.45 310.33 339.96C309.985 339.629 309.503 339.529 309.076 339.657ZM495.221 285.425C494.771 285.56 494.413 285.938 494.327 286.433C494.206 287.131 494.673 287.795 495.369 287.916C500.38 288.791 505.462 289.84 510.477 291.037C511.165 291.201 511.854 290.775 512.017 290.086C512.181 289.398 511.756 288.707 511.067 288.543C506.002 287.336 500.868 286.275 495.807 285.391C495.605 285.356 495.406 285.37 495.221 285.425ZM218.298 383.209C218.292 383.211 218.285 383.213 218.278 383.215C213.025 384.88 208.202 387.109 203.943 389.84C203.347 390.222 203.175 391.015 203.556 391.611C203.937 392.208 204.731 392.38 205.324 391.999C209.394 389.389 214.013 387.256 219.052 385.659C219.726 385.446 220.099 384.726 219.885 384.051C219.673 383.383 218.965 383.01 218.298 383.209ZM536.958 288.265C536.511 288.399 536.153 288.774 536.065 289.266C535.695 291.325 535.352 293.395 535.034 295.471C532.062 294.46 529.077 293.502 526.111 292.607C525.434 292.402 524.72 292.785 524.516 293.463C524.313 294.141 524.696 294.856 525.373 295.06C528.458 295.992 531.563 296.991 534.651 298.047C534.335 300.269 534.05 302.49 533.796 304.7C533.715 305.403 534.219 306.039 534.921 306.12C535.621 306.201 536.259 305.697 536.339 304.995C536.571 302.972 536.831 300.938 537.117 298.903C538.086 299.244 539.051 299.592 540.014 299.944C540.678 300.186 541.412 299.844 541.655 299.179C541.897 298.514 541.555 297.778 540.89 297.536C539.762 297.123 538.63 296.718 537.493 296.319C537.827 294.113 538.192 291.91 538.585 289.721C538.71 289.024 538.247 288.357 537.551 288.232C537.346 288.195 537.144 288.209 536.958 288.265ZM233.448 380.057C232.865 380.231 232.473 380.805 232.546 381.432C232.628 382.135 233.263 382.639 233.966 382.557C238.707 382.009 243.859 381.778 249.274 381.87C249.983 381.882 250.563 381.317 250.575 380.611C250.587 379.902 250.023 379.319 249.316 379.307C243.788 379.213 238.523 379.449 233.668 380.011C233.593 380.02 233.519 380.035 233.448 380.057ZM290.957 364.698C290.632 364.795 290.346 365.021 290.181 365.348C287.744 370.194 285.853 375.145 284.562 380.065C284.382 380.75 284.79 381.45 285.474 381.631C286.159 381.813 286.858 381.403 287.038 380.719C288.284 375.972 290.111 371.189 292.467 366.503C292.785 365.871 292.531 365.1 291.9 364.781C291.596 364.628 291.26 364.607 290.957 364.698ZM192.694 399.919C192.46 399.989 192.242 400.129 192.074 400.333C188.77 404.363 186.089 408.969 184.105 414.024C183.846 414.683 184.17 415.427 184.828 415.686C185.487 415.946 186.229 415.622 186.487 414.964C188.374 410.157 190.919 405.783 194.053 401.96C194.502 401.414 194.422 400.606 193.875 400.157C193.533 399.875 193.089 399.8 192.694 399.919ZM264.398 380.374C263.919 380.517 263.548 380.936 263.492 381.464C263.416 382.168 263.925 382.801 264.628 382.877C266.539 383.083 268.527 383.326 270.536 383.598C273.784 384.038 276.935 384.52 279.902 385.031C280.599 385.153 281.261 384.684 281.38 383.986C281.5 383.289 281.032 382.626 280.335 382.505C277.337 381.988 274.155 381.501 270.877 381.058C268.845 380.783 266.835 380.537 264.902 380.327C264.727 380.309 264.556 380.326 264.398 380.374ZM554.5 303.237C554.148 303.343 553.845 303.597 553.689 303.96C553.411 304.61 553.712 305.364 554.363 305.643C559.05 307.656 563.767 309.835 568.382 312.118C569.015 312.43 569.784 312.171 570.096 311.537C570.409 310.903 570.149 310.134 569.515 309.82C564.859 307.517 560.099 305.319 555.37 303.287C555.083 303.164 554.776 303.155 554.5 303.237ZM294.923 385.746C294.507 385.87 294.165 386.205 294.049 386.657C293.875 387.343 294.288 388.041 294.974 388.216C300.185 389.549 305.118 391.091 309.635 392.8C310.296 393.048 311.034 392.715 311.285 392.053C311.534 391.391 311.199 390.651 310.539 390.401C305.932 388.659 300.909 387.089 295.605 385.732C295.373 385.673 295.138 385.681 294.923 385.746ZM533.424 319.086C532.919 319.237 532.541 319.692 532.512 320.249C532.252 325.437 532.157 330.686 532.231 335.85C532.242 336.558 532.823 337.124 533.529 337.114C534.239 337.102 534.801 336.523 534.791 335.816C534.717 330.706 534.812 325.512 535.07 320.38C535.105 319.673 534.562 319.07 533.856 319.034C533.705 319.027 533.56 319.045 533.424 319.086ZM283.336 394.498C282.812 394.655 282.428 395.139 282.424 395.716C282.385 400.927 283.012 406.207 284.289 411.409C284.459 412.096 285.151 412.518 285.838 412.349C286.548 412.195 286.945 411.486 286.775 410.799C285.548 405.803 284.945 400.736 284.984 395.738C284.989 395.029 284.42 394.451 283.714 394.445C283.582 394.444 283.455 394.463 283.336 394.498ZM181.292 428.306C180.814 428.449 180.444 428.866 180.387 429.394C179.827 434.517 179.86 439.826 180.482 445.175C180.564 445.878 181.199 446.382 181.902 446.301C182.605 446.218 183.107 445.584 183.025 444.881C182.426 439.723 182.393 434.606 182.931 429.675C183.009 428.971 182.501 428.338 181.799 428.26C181.623 428.241 181.451 428.258 181.292 428.306ZM582.298 316.985C581.991 317.077 581.718 317.283 581.549 317.585C581.203 318.202 581.422 318.984 582.039 319.33C586.502 321.838 590.966 324.502 595.305 327.247C595.901 327.626 596.693 327.447 597.071 326.848C597.448 326.25 597.269 325.458 596.67 325.08C592.294 322.312 587.792 319.625 583.291 317.095C582.976 316.918 582.618 316.889 582.298 316.985ZM323.787 396.878C323.479 396.97 323.206 397.176 323.038 397.477C322.692 398.095 322.911 398.877 323.528 399.222C328.121 401.803 332.336 404.723 336.057 407.898C336.595 408.358 337.402 408.294 337.862 407.756C338.32 407.217 338.255 406.408 337.717 405.949C333.869 402.664 329.517 399.649 324.78 396.988C324.466 396.811 324.107 396.782 323.787 396.878ZM533.875 350.109C533.31 350.279 532.918 350.825 532.969 351.439C533.385 356.621 533.981 361.838 534.738 366.946C534.842 367.646 535.493 368.13 536.192 368.027C536.892 367.915 537.374 367.272 537.271 366.572C536.521 361.52 535.932 356.359 535.52 351.236C535.463 350.529 534.846 350.003 534.141 350.059C534.049 350.067 533.96 350.084 533.875 350.109ZM290.597 424.382C290.523 424.404 290.45 424.434 290.378 424.471C289.749 424.794 289.502 425.566 289.825 426.197C292.247 430.914 295.205 435.327 298.615 439.311C299.075 439.849 299.882 439.914 300.42 439.451C300.956 438.99 301.018 438.182 300.558 437.644C297.277 433.812 294.432 429.566 292.102 425.026C291.815 424.468 291.176 424.209 290.597 424.382ZM184.764 458.929C184.75 458.933 184.737 458.937 184.724 458.941C184.054 459.165 183.692 459.891 183.916 460.562C185.603 465.618 187.797 470.448 190.437 474.918C190.797 475.526 191.579 475.729 192.19 475.369C192.799 475.01 193 474.224 192.64 473.615C190.092 469.299 187.974 464.636 186.345 459.752C186.124 459.093 185.423 458.732 184.764 458.929ZM608.514 333.565C608.249 333.644 608.008 333.808 607.836 334.052C607.429 334.629 607.565 335.429 608.142 335.838C612.421 338.872 616.567 342 620.466 345.138C621.017 345.581 621.824 345.493 622.265 344.943C622.709 344.391 622.62 343.583 622.069 343.14C618.129 339.971 613.941 336.81 609.621 333.747C609.287 333.51 608.878 333.456 608.514 333.565ZM347.038 417.046C346.915 417.083 346.795 417.139 346.683 417.215C346.099 417.614 345.949 418.411 346.347 418.996C348.654 422.382 350.466 426.15 351.585 429.891C351.865 430.826 352.103 431.767 352.293 432.688C352.437 433.381 353.115 433.826 353.807 433.684C354.516 433.527 354.944 432.861 354.801 432.169C354.595 431.176 354.337 430.163 354.036 429.157C352.843 425.168 350.916 421.154 348.462 417.553C348.139 417.079 347.557 416.891 347.038 417.046ZM310.648 447.689C310.382 447.768 310.141 447.934 309.969 448.18C309.562 448.758 309.702 449.557 310.28 449.964C312.097 451.246 313.995 452.432 315.92 453.491C318.645 454.989 321.518 456.192 324.46 457.066C325.139 457.266 325.851 456.88 326.051 456.202C326.251 455.523 325.864 454.81 325.186 454.608C322.419 453.787 319.716 452.654 317.151 451.244C315.309 450.23 313.493 449.095 311.752 447.869C311.418 447.634 311.01 447.58 310.648 447.689ZM538.477 380.791C537.839 380.982 537.448 381.64 537.598 382.301C538.513 386.34 539.554 390.314 540.69 394.113C541.018 395.208 541.356 396.299 541.705 397.385C541.919 398.051 542.625 398.421 543.29 398.222C543.299 398.22 543.308 398.217 543.316 398.214C543.989 397.997 544.359 397.276 544.142 396.602C543.798 395.532 543.465 394.458 543.142 393.38C542.022 389.636 540.997 385.718 540.095 381.736C539.938 381.046 539.252 380.613 538.563 380.769C538.534 380.776 538.505 380.783 538.477 380.791ZM632.653 353.04C632.441 353.103 632.243 353.223 632.081 353.397C631.602 353.917 631.634 354.728 632.152 355.208C635.993 358.762 639.66 362.429 643.055 366.109C643.534 366.628 644.344 366.658 644.863 366.181C645.382 365.701 645.414 364.89 644.934 364.37C641.494 360.641 637.779 356.925 633.89 353.327C633.545 353.008 633.072 352.914 632.653 353.04ZM200.21 485.632C200.046 485.681 199.888 485.765 199.748 485.883C199.21 486.342 199.145 487.15 199.604 487.69C202.869 491.53 206.572 495.292 210.61 498.867C211.14 499.335 211.949 499.286 212.417 498.757C212.885 498.227 212.835 497.417 212.305 496.948C208.357 493.452 204.74 489.778 201.553 486.03C201.213 485.63 200.682 485.491 200.21 485.632ZM351.695 446.349C351.374 446.445 351.09 446.667 350.925 446.989C350.137 448.52 349.104 449.914 347.854 451.132C345.687 453.246 342.938 454.707 339.834 455.451C339.133 455.646 338.723 456.307 338.888 456.995C339.053 457.684 339.744 458.109 340.432 457.944C343.996 457.094 347.141 455.407 349.641 452.969C351.089 451.557 352.286 449.941 353.2 448.164C353.524 447.535 353.277 446.763 352.648 446.438C352.341 446.279 352.001 446.257 351.695 446.349ZM653.639 375.864C653.493 375.908 653.353 375.979 653.226 376.077C652.665 376.509 652.561 377.314 652.993 377.874C656.161 381.992 659.114 386.245 661.769 390.514C662.142 391.116 662.93 391.299 663.532 390.927C664.132 390.553 664.316 389.762 663.942 389.161C661.242 384.819 658.24 380.495 655.02 376.312C654.688 375.879 654.132 375.717 653.639 375.864ZM223.282 506.268C223.016 506.348 222.773 506.514 222.602 506.759C222.196 507.339 222.336 508.138 222.915 508.545C226.949 511.381 231.38 514.207 236.085 516.948C236.695 517.304 237.48 517.096 237.834 516.486C238.189 515.874 237.982 515.089 237.37 514.733C232.728 512.029 228.36 509.241 224.385 506.447C224.051 506.212 223.644 506.16 223.282 506.268ZM548.052 410.28C548.001 410.295 547.951 410.313 547.901 410.336C547.254 410.621 546.961 411.377 547.247 412.025C549.404 416.917 551.817 421.605 554.418 425.96C554.782 426.567 555.566 426.767 556.174 426.403C556.781 426.04 556.978 425.254 556.615 424.646C554.067 420.38 551.704 415.787 549.588 410.991C549.325 410.394 548.661 410.097 548.052 410.28ZM250.014 521.976C249.689 522.074 249.401 522.3 249.237 522.629C248.92 523.261 249.176 524.032 249.807 524.349C252.139 525.522 254.629 526.733 257.207 527.95C259.436 529.001 261.677 530.036 263.868 531.026C264.511 531.316 265.271 531.029 265.56 530.385C265.85 529.74 265.563 528.981 264.918 528.69C262.741 527.706 260.513 526.677 258.296 525.632C255.737 524.423 253.268 523.222 250.955 522.059C250.651 521.906 250.316 521.886 250.014 521.976ZM669.734 402.321C669.688 402.335 669.643 402.351 669.597 402.371C668.948 402.648 668.645 403.401 668.923 404.052C670.138 406.902 671.183 409.777 672.027 412.598C672.629 414.609 673.136 416.623 673.537 418.582C673.678 419.276 674.354 419.723 675.047 419.582C675.744 419.438 676.187 418.764 676.045 418.07C675.629 416.036 675.102 413.948 674.479 411.864C673.607 408.951 672.53 405.986 671.277 403.047C671.019 402.442 670.351 402.137 669.734 402.321ZM564.013 436.801C563.857 436.848 563.708 436.925 563.575 437.034C563.025 437.48 562.942 438.287 563.388 438.836C565.696 441.684 568.16 444.408 570.714 446.933C571.841 448.049 573.024 449.153 574.231 450.215C574.763 450.684 575.571 450.629 576.038 450.1C576.504 449.568 576.452 448.758 575.921 448.29C574.751 447.262 573.604 446.191 572.513 445.11C570.026 442.652 567.624 439.998 565.375 437.222C565.038 436.806 564.496 436.657 564.013 436.801ZM278.272 534.764C277.915 534.871 277.607 535.134 277.454 535.507C277.186 536.162 277.501 536.91 278.155 537.178C282.935 539.136 287.812 541.034 292.652 542.82C293.315 543.065 294.052 542.725 294.294 542.061C294.539 541.397 294.198 540.66 293.535 540.416C288.724 538.64 283.875 536.753 279.123 534.806C278.842 534.69 278.543 534.683 278.272 534.764ZM587.234 457.15C586.938 457.239 586.673 457.434 586.503 457.721C586.141 458.328 586.34 459.115 586.947 459.478C591.475 462.184 596.246 464.471 601.128 466.28C601.791 466.526 602.527 466.188 602.772 465.523C603.017 464.859 602.677 464.121 602.014 463.876C597.279 462.123 592.651 459.902 588.258 457.277C587.937 457.086 587.566 457.051 587.234 457.15ZM675.441 432.535C674.956 432.68 674.583 433.109 674.533 433.646C674.056 438.899 672.615 443.686 670.25 447.875C669.903 448.491 670.12 449.273 670.735 449.621C671.351 449.97 672.132 449.753 672.479 449.137C675.024 444.631 676.572 439.497 677.083 433.881C677.147 433.176 676.628 432.553 675.924 432.487C675.757 432.472 675.594 432.489 675.441 432.535ZM307.369 545.503C306.981 545.619 306.654 545.917 306.518 546.331C306.297 547.004 306.663 547.728 307.335 547.949C312.226 549.563 317.223 551.115 322.189 552.562C322.871 552.76 323.579 552.368 323.776 551.69C323.972 551.01 323.582 550.299 322.903 550.101C317.966 548.662 312.997 547.119 308.135 545.515C307.876 545.429 307.611 545.431 307.369 545.503ZM616.177 467.79C615.72 467.927 615.359 468.315 615.281 468.819C615.17 469.518 615.648 470.174 616.346 470.284C621.658 471.123 626.953 471.37 632.085 471.019C632.79 470.97 633.323 470.36 633.274 469.653C633.226 468.946 632.615 468.413 631.91 468.461C626.968 468.799 621.865 468.561 616.743 467.752C616.547 467.721 616.356 467.737 616.177 467.79ZM337.142 554.182C336.725 554.307 336.383 554.642 336.268 555.095C336.094 555.782 336.51 556.479 337.194 556.653C342.186 557.921 347.279 559.121 352.332 560.221C353.023 560.37 353.705 559.931 353.855 559.24C354.004 558.548 353.565 557.866 352.874 557.715C347.849 556.623 342.786 555.429 337.823 554.169C337.59 554.109 337.356 554.118 337.142 554.182ZM660.611 458.622C660.48 458.662 660.351 458.723 660.233 458.808C657.651 460.657 654.716 462.308 651.507 463.718C649.966 464.394 648.368 465.011 646.759 465.551C646.088 465.776 645.728 466.501 645.952 467.173C646.177 467.845 646.894 468.22 647.573 467.981C649.256 467.417 650.926 466.773 652.537 466.065C655.907 464.585 658.998 462.845 661.723 460.893C662.298 460.482 662.43 459.682 662.019 459.105C661.692 458.648 661.12 458.47 660.611 458.622ZM367.443 560.769C366.996 560.902 366.639 561.278 366.551 561.769C366.425 562.466 366.888 563.132 367.584 563.259C372.661 564.179 377.824 565.022 382.93 565.766C383.628 565.866 384.279 565.382 384.38 564.682C384.481 563.982 383.996 563.331 383.296 563.229C378.22 562.49 373.086 561.652 368.037 560.736C367.833 560.699 367.631 560.713 367.443 560.769ZM398.129 565.235C397.65 565.378 397.28 565.795 397.223 566.323C397.145 567.027 397.654 567.66 398.356 567.737C403.481 568.302 408.69 568.784 413.839 569.17C414.541 569.223 415.158 568.694 415.21 567.987C415.263 567.281 414.733 566.667 414.028 566.614C408.909 566.23 403.729 565.75 398.635 565.189C398.459 565.17 398.288 565.187 398.129 565.235ZM429.045 567.55C428.534 567.702 428.155 568.165 428.133 568.728C428.105 569.434 428.656 570.031 429.363 570.06C434.516 570.265 439.746 570.38 444.907 570.402C445.614 570.402 446.189 569.835 446.192 569.127C446.194 568.419 445.623 567.842 444.916 567.839C439.785 567.817 434.585 567.702 429.462 567.498C429.316 567.492 429.176 567.511 429.045 567.55Z" fill="#D3D3D3"/>
</g>
<mask id="mask2_93_901" style="mask-type:luminance" maskUnits="userSpaceOnUse" x="0" y="0" width="854" height="856">
<path d="M656.057 0.756587L0.491798 196.839L197.531 855.603L853.097 659.52L656.057 0.756587Z" fill="white"/>
</mask>
<g mask="url(#mask2_93_901)">
<path fill-rule="evenodd" clip-rule="evenodd" d="M542.188 265.455C541.782 265.577 541.445 265.898 541.322 266.337C540.634 268.796 539.971 271.311 539.354 273.813C539.185 274.5 539.605 275.195 540.291 275.365C540.977 275.534 541.67 275.115 541.84 274.429C542.451 271.953 543.106 269.464 543.787 267.031C543.978 266.35 543.581 265.641 542.9 265.45C542.658 265.381 542.413 265.388 542.188 265.455Z" fill="#D3D3D3"/>
</g>
</svg>
