<svg width="932" height="958" viewBox="0 0 932 958" fill="none" xmlns="http://www.w3.org/2000/svg">
<mask id="mask0_45_70" style="mask-type:luminance" maskUnits="userSpaceOnUse" x="-25" y="0" width="958" height="958">
<path d="M532.123 957.896L-24.5276 559.958L375.351 0.59184L932.002 398.53L532.123 957.896Z" fill="white"/>
</mask>
<g mask="url(#mask0_45_70)">
<path fill-rule="evenodd" clip-rule="evenodd" d="M530.402 358.04C529.941 357.711 529.74 357.101 529.95 356.546C530.201 355.883 530.94 355.549 531.602 355.799C533.968 356.693 536.384 357.63 538.784 358.584C539.442 358.845 539.761 359.591 539.498 360.249C539.236 360.906 538.492 361.227 537.834 360.966C535.449 360.017 533.047 359.085 530.693 358.197C530.588 358.157 530.49 358.104 530.402 358.04Z" fill="#D3D3D3"/>
</g>
<mask id="mask1_45_70" style="mask-type:luminance" maskUnits="userSpaceOnUse" x="-25" y="0" width="958" height="958">
<path d="M532.123 957.896L-24.5276 559.958L375.351 0.59184L932.002 398.53L532.123 957.896Z" fill="white"/>
</mask>
<g mask="url(#mask1_45_70)">
<path fill-rule="evenodd" clip-rule="evenodd" d="M372.898 595.394C372.891 595.389 372.884 595.385 372.878 595.381C368.702 592.282 364.606 589.005 360.705 585.636C360.17 585.174 360.111 584.365 360.574 583.829C361.037 583.293 361.837 583.233 362.38 583.695C366.233 587.022 370.279 590.261 374.406 593.322C374.974 593.742 375.092 594.545 374.67 595.114C374.253 595.676 373.463 595.799 372.898 595.394ZM385.67 604.17C385.121 603.778 384.97 603.019 385.336 602.442C385.716 601.845 386.508 601.667 387.104 602.047C391.414 604.785 395.886 607.409 400.395 609.843C401.022 610.179 401.248 610.956 400.912 611.578C400.576 612.202 399.799 612.434 399.177 612.098C394.614 609.635 390.09 606.981 385.729 604.211C385.709 604.198 385.69 604.184 385.67 604.17ZM349.458 575.143C349.401 575.102 349.346 575.055 349.294 575.003C345.625 571.312 342.074 567.446 338.74 563.516C338.283 562.977 338.349 562.168 338.889 561.71C339.429 561.253 340.232 561.313 340.694 561.856C343.984 565.736 347.49 569.55 351.112 573.195C351.61 573.697 351.607 574.507 351.106 575.007C350.655 575.454 349.957 575.5 349.458 575.143ZM412.927 618.896C412.44 618.548 412.25 617.893 412.508 617.326C412.801 616.681 413.559 616.395 414.203 616.687C418.866 618.798 423.661 620.77 428.456 622.549C429.122 622.797 429.456 623.532 429.21 624.195C428.963 624.859 428.226 625.197 427.563 624.952C422.712 623.152 417.861 621.157 413.145 619.021C413.067 618.986 412.994 618.944 412.927 618.896ZM329.434 551.511C329.323 551.432 329.223 551.333 329.139 551.216C326.105 546.98 323.229 542.587 320.589 538.156C320.228 537.549 320.427 536.762 321.035 536.399C321.642 536.037 322.428 536.235 322.79 536.843C325.392 541.211 328.228 545.544 331.221 549.721C331.633 550.295 331.501 551.097 330.926 551.509C330.468 551.837 329.868 551.821 329.434 551.511ZM441.976 629.678C441.545 629.37 441.335 628.811 441.494 628.273C441.694 627.595 442.407 627.206 443.085 627.406C447.968 628.843 452.99 630.143 458.01 631.269C458.701 631.423 459.134 632.109 458.978 632.798C458.823 633.489 458.138 633.924 457.448 633.768C452.372 632.631 447.295 631.316 442.359 629.864C442.218 629.822 442.09 629.759 441.976 629.678ZM313.685 524.843C313.511 524.719 313.367 524.548 313.269 524.34C310.998 519.426 309.091 514.512 307.601 509.735C307.39 509.059 307.766 508.34 308.441 508.129C309.117 507.916 309.835 508.293 310.045 508.968C311.503 513.639 313.37 518.448 315.595 523.262C315.892 523.904 315.612 524.666 314.97 524.963C314.536 525.164 314.048 525.103 313.685 524.843ZM472.213 636.469C471.83 636.196 471.614 635.722 471.693 635.226C471.804 634.527 472.461 634.05 473.16 634.161C478.183 634.956 483.331 635.611 488.463 636.104C489.168 636.172 489.681 636.798 489.613 637.503C489.545 638.207 488.918 638.723 488.214 638.655C483.031 638.155 477.83 637.495 472.756 636.692C472.553 636.659 472.369 636.581 472.213 636.469ZM241.919 454.225C241.914 454.221 241.908 454.217 241.902 454.213C237.472 450.936 233.631 447.264 230.487 443.3C230.047 442.746 230.141 441.94 230.695 441.499C231.249 441.058 232.056 441.153 232.493 441.705C235.498 445.493 239.176 449.008 243.426 452.151C243.995 452.572 244.114 453.374 243.693 453.943C243.276 454.507 242.486 454.63 241.919 454.225ZM512.617 647.307C512.238 647.036 512.021 646.565 512.097 646.071C512.414 644.004 512.76 641.934 513.132 639.867C509.993 639.86 506.859 639.8 503.763 639.685C503.056 639.66 502.504 639.065 502.531 638.358C502.559 637.651 503.153 637.099 503.859 637.125C507.08 637.244 510.341 637.304 513.605 637.305C514.026 635.102 514.476 632.907 514.952 630.735C515.103 630.044 515.786 629.605 516.476 629.756C517.165 629.906 517.605 630.589 517.453 631.28C517.017 633.269 516.604 635.277 516.215 637.295C517.242 637.286 518.268 637.27 519.293 637.249C520 637.236 520.583 637.797 520.597 638.504C520.611 639.212 520.049 639.798 519.341 639.811C518.14 639.836 516.938 639.852 515.734 639.861C515.335 642.057 514.966 644.259 514.628 646.457C514.521 647.157 513.867 647.638 513.168 647.531C512.962 647.499 512.776 647.42 512.617 647.307ZM255.23 462.117C254.735 461.763 254.55 461.093 254.822 460.523C255.127 459.885 255.891 459.613 256.53 459.919C260.838 461.974 265.636 463.862 270.79 465.53C271.464 465.748 271.83 466.47 271.612 467.142C271.394 467.816 270.671 468.185 269.999 467.968C264.738 466.266 259.834 464.336 255.423 462.232C255.355 462.199 255.29 462.16 255.23 462.117ZM304.659 495.283C304.382 495.085 304.185 494.779 304.135 494.416C303.4 489.041 303.216 483.745 303.588 478.672C303.64 477.966 304.253 477.436 304.959 477.486C305.665 477.536 306.194 478.151 306.142 478.856C305.784 483.75 305.962 488.867 306.672 494.064C306.768 494.765 306.278 495.412 305.577 495.509C305.24 495.556 304.916 495.467 304.659 495.283ZM223.111 430.12C222.912 429.978 222.751 429.775 222.659 429.527C220.839 424.644 219.795 419.417 219.556 413.992C219.525 413.285 220.072 412.686 220.779 412.654C221.486 412.622 222.083 413.169 222.114 413.875C222.342 419.034 223.332 423.997 225.059 428.629C225.306 429.292 224.968 430.03 224.306 430.278C223.891 430.433 223.447 430.36 223.111 430.12ZM284.613 471.846C284.206 471.555 283.991 471.039 284.108 470.521C284.265 469.831 284.951 469.397 285.641 469.553C287.516 469.976 289.475 470.391 291.464 470.785C294.679 471.421 297.817 471.986 300.789 472.464C301.488 472.575 301.962 473.233 301.849 473.932C301.736 474.63 301.078 475.106 300.38 474.994C297.377 474.512 294.209 473.941 290.964 473.298C288.953 472.9 286.971 472.481 285.074 472.053C284.902 472.014 284.747 471.942 284.613 471.846ZM534.065 638.827C533.766 638.614 533.561 638.275 533.532 637.881C533.479 637.176 534.009 636.561 534.714 636.507C539.801 636.121 544.969 635.589 550.075 634.925C550.775 634.834 551.418 635.329 551.509 636.029C551.599 636.731 551.104 637.374 550.402 637.466C545.251 638.136 540.036 638.673 534.904 639.062C534.593 639.086 534.299 638.995 534.065 638.827ZM315.231 476.656C314.878 476.403 314.662 475.976 314.699 475.51C314.757 474.805 315.374 474.279 316.08 474.335C321.442 474.763 326.608 474.902 331.435 474.75C332.142 474.729 332.732 475.283 332.754 475.99C332.775 476.698 332.219 477.289 331.513 477.312C326.59 477.467 321.329 477.324 315.872 476.889C315.633 476.87 315.414 476.786 315.231 476.656ZM519.261 617.004C518.833 616.698 518.622 616.145 518.776 615.609C520.211 610.617 521.822 605.62 523.566 600.758C523.805 600.092 524.539 599.745 525.203 599.983C525.871 600.225 526.215 600.955 525.976 601.62C524.251 606.43 522.657 611.375 521.238 616.314C521.042 616.994 520.333 617.388 519.653 617.194C519.508 617.152 519.377 617.087 519.261 617.004ZM307.106 464.62C306.661 464.302 306.455 463.72 306.638 463.173C308.289 458.231 310.593 453.438 313.487 448.932C313.87 448.336 314.662 448.162 315.257 448.544C315.879 448.92 316.025 449.719 315.642 450.314C312.862 454.643 310.65 459.241 309.066 463.982C308.842 464.654 308.116 465.017 307.446 464.793C307.321 464.752 307.207 464.693 307.106 464.62ZM221.523 399.57C221.117 399.28 220.903 398.766 221.019 398.247C222.15 393.22 223.902 388.208 226.224 383.348C226.529 382.71 227.293 382.439 227.932 382.744C228.569 383.05 228.84 383.812 228.534 384.451C226.295 389.136 224.606 393.966 223.518 398.806C223.363 399.497 222.678 399.931 221.988 399.777C221.815 399.738 221.659 399.667 221.523 399.57ZM564.817 634.829C564.557 634.643 564.365 634.36 564.303 634.019C564.176 633.323 564.637 632.655 565.333 632.527C570.367 631.601 575.454 630.527 580.448 629.337C581.135 629.171 581.826 629.596 581.989 630.286C582.153 630.974 581.726 631.665 581.038 631.829C576 633.029 570.871 634.112 565.793 635.047C565.438 635.112 565.089 635.024 564.817 634.829ZM346.145 475.477C345.884 475.291 345.692 475.007 345.631 474.667C345.503 473.971 345.964 473.303 346.66 473.175C351.841 472.222 356.775 470.826 361.324 469.028C361.982 468.767 362.724 469.089 362.985 469.747C363.244 470.406 362.921 471.15 362.263 471.41C357.558 473.27 352.464 474.712 347.121 475.695C346.765 475.76 346.417 475.672 346.145 475.477ZM529.742 587.801C529.261 587.458 529.068 586.814 529.315 586.25C531.388 581.482 533.642 576.74 536.013 572.152C536.339 571.524 537.111 571.277 537.74 571.601C538.366 571.934 538.613 572.699 538.289 573.327C535.942 577.864 533.713 582.555 531.663 587.269C531.38 587.918 530.625 588.216 529.977 587.935C529.893 587.898 529.814 587.853 529.742 587.801ZM323.659 438.702C323.596 438.657 323.536 438.605 323.481 438.547C322.991 438.037 323.007 437.227 323.516 436.735C327.337 433.057 331.564 429.841 336.082 427.177C336.691 426.817 337.475 427.017 337.834 427.63C338.192 428.239 337.989 429.024 337.379 429.384C333.034 431.946 328.967 435.041 325.291 438.581C324.839 439.016 324.15 439.053 323.659 438.702ZM234.731 371.724C234.72 371.716 234.709 371.708 234.697 371.7C234.136 371.271 234.029 370.467 234.458 369.904C237.692 365.668 241.333 361.81 245.279 358.436C245.817 357.978 246.623 358.039 247.084 358.577C247.544 359.114 247.479 359.924 246.941 360.383C243.132 363.64 239.617 367.366 236.493 371.458C236.071 372.01 235.291 372.124 234.731 371.724ZM594.991 627.64C594.766 627.479 594.592 627.245 594.509 626.959C594.31 626.281 594.698 625.569 595.377 625.369C600.407 623.885 605.343 622.269 610.049 620.564C610.714 620.323 611.449 620.668 611.688 621.332C611.928 621.998 611.583 622.733 610.918 622.974C606.164 624.695 601.178 626.328 596.098 627.826C595.705 627.942 595.301 627.861 594.991 627.64ZM374.676 463.932C374.572 463.857 374.477 463.765 374.396 463.657C373.973 463.091 374.089 462.287 374.655 461.864C377.935 459.408 380.87 456.431 383.141 453.254C383.709 452.46 384.238 451.647 384.717 450.837C385.078 450.229 385.863 450.026 386.472 450.386C387.092 450.763 387.281 451.532 386.921 452.141C386.405 453.013 385.833 453.888 385.222 454.742C382.8 458.13 379.677 461.302 376.188 463.914C375.729 464.257 375.118 464.247 374.676 463.932ZM350.18 423.151C349.955 422.99 349.78 422.754 349.697 422.466C349.5 421.787 349.89 421.076 350.57 420.878C352.704 420.255 354.884 419.748 357.048 419.37C360.111 418.836 363.219 418.629 366.286 418.755C366.993 418.785 367.541 419.382 367.511 420.088C367.48 420.795 366.883 421.345 366.176 421.316C363.292 421.196 360.368 421.391 357.485 421.894C355.414 422.257 353.327 422.742 351.284 423.338C350.891 423.452 350.488 423.371 350.18 423.151ZM544.037 560.266C543.496 559.879 543.339 559.13 543.695 558.553C545.87 555.028 548.142 551.606 550.448 548.38C551.113 547.451 551.786 546.528 552.468 545.613C552.887 545.053 553.674 544.932 554.239 545.335C554.247 545.341 554.254 545.346 554.261 545.351C554.828 545.775 554.943 546.577 554.52 547.144C553.848 548.045 553.185 548.953 552.53 549.869C550.258 553.048 548.018 556.421 545.874 559.896C545.502 560.498 544.713 560.686 544.111 560.315C544.086 560.299 544.061 560.283 544.037 560.266ZM624.139 617.038C623.959 616.909 623.81 616.732 623.714 616.514C623.429 615.867 623.722 615.11 624.368 614.824C629.153 612.707 633.81 610.426 638.214 608.045C638.836 607.709 639.612 607.943 639.949 608.562C640.284 609.185 640.052 609.962 639.429 610.299C634.966 612.712 630.247 615.023 625.403 617.167C624.973 617.357 624.495 617.292 624.139 617.038ZM257.997 351.468C257.857 351.368 257.735 351.237 257.641 351.08C257.281 350.471 257.482 349.686 258.09 349.324C262.424 346.749 267.146 344.39 272.125 342.317C272.778 342.045 273.527 342.355 273.798 343.006C274.07 343.659 273.76 344.41 273.107 344.681C268.239 346.71 263.626 349.013 259.396 351.526C258.945 351.794 258.397 351.754 257.997 351.468ZM388.578 437.719C388.305 437.524 388.109 437.223 388.057 436.864C387.807 435.16 387.282 433.507 386.495 431.95C385.129 429.248 383.002 426.975 380.307 425.265C379.706 424.853 379.533 424.095 379.912 423.497C380.291 422.9 381.083 422.721 381.68 423.1C384.777 425.059 387.205 427.674 388.78 430.791C389.693 432.596 390.301 434.513 390.59 436.489C390.693 437.19 390.209 437.841 389.509 437.944C389.167 437.995 388.838 437.905 388.578 437.719ZM651.389 602.245C651.265 602.157 651.155 602.044 651.067 601.91C650.676 601.32 650.839 600.525 651.429 600.135C655.761 597.266 659.932 594.199 663.827 591.021C664.375 590.572 665.18 590.654 665.629 591.201C666.076 591.75 665.993 592.557 665.444 593.005C661.483 596.237 657.243 599.355 652.841 602.27C652.386 602.572 651.808 602.545 651.389 602.245ZM286.511 339.421C286.285 339.26 286.11 339.024 286.027 338.736C285.831 338.057 286.222 337.346 286.902 337.149C291.637 335.773 296.745 334.535 302.084 333.466C302.777 333.328 303.452 333.778 303.589 334.471C303.727 335.165 303.276 335.84 302.582 335.978C297.314 337.032 292.279 338.254 287.613 339.61C287.221 339.724 286.818 339.641 286.511 339.421ZM562.651 535.472C562.608 535.441 562.566 535.407 562.527 535.37C562.007 534.89 561.975 534.08 562.455 533.56C566.081 529.631 569.883 525.978 573.756 522.7C574.296 522.244 575.103 522.309 575.56 522.85C576.016 523.39 575.948 524.198 575.408 524.655C571.616 527.865 567.891 531.445 564.335 535.296C563.893 535.776 563.169 535.842 562.651 535.472ZM316.891 333.223C316.615 333.026 316.416 332.718 316.367 332.354C316.272 331.653 316.764 331.007 317.464 330.911C320.05 330.557 322.798 330.218 325.631 329.902C328.08 329.63 330.537 329.377 332.93 329.151C333.632 329.085 334.258 329.602 334.323 330.306C334.389 331.01 333.871 331.635 333.166 331.702C330.788 331.927 328.347 332.179 325.91 332.449C323.098 332.763 320.373 333.099 317.808 333.45C317.471 333.496 317.147 333.406 316.891 333.223ZM675.189 582.432C675.15 582.404 675.112 582.374 675.076 582.34C674.551 581.867 674.509 581.057 674.982 580.531C677.056 578.229 678.975 575.848 680.688 573.453C681.909 571.745 683.042 570.004 684.056 568.281C684.414 567.67 685.199 567.466 685.809 567.824C686.421 568.185 686.622 568.967 686.262 569.578C685.21 571.367 684.035 573.172 682.77 574.941C681.001 577.414 679.021 579.871 676.884 582.245C676.443 582.734 675.712 582.806 675.189 582.432ZM586.345 515.553C586.213 515.459 586.097 515.337 586.006 515.191C585.631 514.591 585.814 513.8 586.414 513.425C589.52 511.479 592.734 509.701 595.968 508.14C597.396 507.449 598.874 506.788 600.359 506.174C601.015 505.904 601.761 506.217 602.031 506.869C602.3 507.523 601.988 508.272 601.334 508.543C599.893 509.137 598.462 509.778 597.079 510.447C593.93 511.967 590.798 513.7 587.77 515.596C587.317 515.881 586.755 515.847 586.345 515.553ZM347.768 330.282C347.464 330.065 347.258 329.717 347.235 329.315C347.194 328.608 347.734 328.002 348.44 327.961C353.596 327.658 358.825 327.442 363.982 327.321C364.689 327.304 365.276 327.864 365.29 328.571C365.306 329.279 364.745 329.865 364.039 329.881C358.911 330.003 353.713 330.217 348.587 330.518C348.283 330.537 347.998 330.446 347.768 330.282ZM614.908 503.827C614.657 503.648 614.469 503.377 614.401 503.051C614.255 502.359 614.698 501.679 615.39 501.532C620.551 500.439 625.806 499.821 631.01 499.692C631.717 499.674 632.304 500.233 632.32 500.941C632.337 501.649 631.776 502.236 631.07 502.254C626.022 502.378 620.925 502.979 615.917 504.039C615.552 504.116 615.19 504.029 614.908 503.827ZM690.379 555.698C689.966 555.403 689.752 554.876 689.88 554.352C691.131 549.228 691.318 544.233 690.439 539.504C690.31 538.808 690.769 538.139 691.464 538.008C692.159 537.878 692.827 538.336 692.957 539.032C693.904 544.119 693.705 549.477 692.368 554.957C692.2 555.644 691.507 556.066 690.82 555.899C690.657 555.86 690.508 555.79 690.379 555.698ZM378.774 329.552C378.445 329.316 378.233 328.929 378.238 328.493C378.247 327.785 378.828 327.219 379.535 327.226C384.685 327.285 389.916 327.436 395.083 327.676C395.792 327.71 396.334 328.31 396.301 329.016C396.267 329.722 395.667 330.269 394.96 330.236C389.823 329.997 384.623 329.846 379.503 329.789C379.231 329.786 378.98 329.699 378.774 329.552ZM645.737 503.141C645.349 502.863 645.133 502.379 645.222 501.877C645.344 501.18 646.009 500.714 646.705 500.836C652.002 501.764 657.091 503.246 661.833 505.241C662.484 505.516 662.79 506.265 662.515 506.919C662.241 507.571 661.489 507.877 660.838 507.603C656.272 505.682 651.367 504.254 646.26 503.359C646.065 503.325 645.888 503.249 645.737 503.141ZM409.754 330.989C409.4 330.736 409.184 330.308 409.222 329.842C409.281 329.136 409.9 328.611 410.604 328.668C415.737 329.086 420.944 329.601 426.081 330.199C426.783 330.281 427.286 330.917 427.203 331.62C427.12 332.323 426.484 332.826 425.782 332.745C420.674 332.149 415.497 331.638 410.394 331.222C410.154 331.203 409.936 331.119 409.754 330.989ZM684.802 526.212C684.691 526.132 684.589 526.033 684.505 525.914C682.662 523.329 680.419 520.815 677.841 518.442C676.602 517.302 675.291 516.201 673.943 515.169C673.381 514.739 673.275 513.935 673.705 513.373C674.136 512.81 674.936 512.687 675.501 513.133C676.91 514.212 678.281 515.363 679.576 516.555C682.285 519.047 684.645 521.695 686.591 524.424C687.001 525 686.867 525.799 686.291 526.211C685.834 526.538 685.235 526.521 684.802 526.212ZM440.554 334.577C440.175 334.306 439.959 333.835 440.034 333.341C440.141 332.642 440.795 332.161 441.494 332.267C446.596 333.041 451.753 333.917 456.825 334.867C457.518 334.999 457.976 335.668 457.845 336.363C457.714 337.058 457.044 337.516 456.349 337.386C451.307 336.44 446.179 335.57 441.106 334.8C440.9 334.769 440.714 334.691 440.554 334.577ZM471.031 340.295C470.625 340.005 470.41 339.491 470.527 338.972C470.682 338.281 471.368 337.847 472.057 338.002C477.088 339.128 482.173 340.361 487.169 341.663C487.85 341.841 488.262 342.541 488.083 343.227C487.904 343.912 487.204 344.321 486.52 344.143C481.552 342.847 476.496 341.623 471.495 340.502C471.322 340.464 471.166 340.392 471.031 340.295ZM501.029 348.124C500.596 347.814 500.387 347.253 500.548 346.714C500.751 346.036 501.465 345.65 502.143 345.852C507.085 347.328 512.07 348.914 516.96 350.565C517.628 350.794 517.989 351.518 517.762 352.188C517.534 352.859 516.808 353.219 516.138 352.993C511.277 351.351 506.32 349.775 501.407 348.307C501.268 348.266 501.14 348.203 501.029 348.124Z" fill="#D3D3D3"/>
</g>
<mask id="mask2_45_70" style="mask-type:luminance" maskUnits="userSpaceOnUse" x="-25" y="0" width="958" height="958">
<path d="M532.123 957.896L-24.5276 559.958L375.351 0.59184L932.002 398.53L532.123 957.896Z" fill="white"/>
</mask>
<g mask="url(#mask2_45_70)">
<path fill-rule="evenodd" clip-rule="evenodd" d="M510.174 670.581C509.829 670.334 509.614 669.922 509.64 669.466C509.786 666.917 509.974 664.323 510.201 661.756C510.264 661.051 510.886 660.53 511.591 660.591C512.294 660.654 512.815 661.274 512.753 661.979C512.528 664.519 512.341 667.086 512.197 669.608C512.157 670.315 511.552 670.856 510.846 670.816C510.595 670.803 510.364 670.717 510.174 670.581Z" fill="#D3D3D3"/>
</g>
</svg>
