<svg width="827" height="919" viewBox="0 0 827 919" fill="none" xmlns="http://www.w3.org/2000/svg">
<mask id="mask0_45_175" style="mask-type:luminance" maskUnits="userSpaceOnUse" x="0" y="0" width="918" height="919">
<path d="M302.056 918.459L917.202 618.776L616.057 0.629435L0.910449 300.313L302.056 918.459Z" fill="white"/>
</mask>
<g mask="url(#mask0_45_175)">
<path fill-rule="evenodd" clip-rule="evenodd" d="M403.646 327.267C404.156 327.018 404.455 326.451 404.34 325.868C404.204 325.173 403.531 324.721 402.836 324.857C400.353 325.344 397.815 325.866 395.29 326.407C394.598 326.554 394.159 327.237 394.309 327.929C394.458 328.621 395.139 329.062 395.83 328.913C398.34 328.375 400.863 327.856 403.332 327.372C403.443 327.35 403.548 327.314 403.646 327.267Z" fill="#D3D3D3"/>
</g>
<mask id="mask1_45_175" style="mask-type:luminance" maskUnits="userSpaceOnUse" x="0" y="0" width="918" height="919">
<path d="M302.056 918.459L917.202 618.776L616.057 0.629435L0.910449 300.313L302.056 918.459Z" fill="white"/>
</mask>
<g mask="url(#mask1_45_175)">
<path fill-rule="evenodd" clip-rule="evenodd" d="M519.425 587.535C519.432 587.531 519.439 587.528 519.446 587.525C524.08 585.165 528.665 582.616 533.072 579.944C533.676 579.577 533.869 578.789 533.503 578.183C533.135 577.578 532.356 577.386 531.744 577.751C527.391 580.39 522.862 582.909 518.283 585.24C517.653 585.56 517.403 586.332 517.724 586.963C518.041 587.587 518.8 587.84 519.425 587.535ZM505.369 594.061C505.976 593.766 506.251 593.043 505.986 592.413C505.711 591.761 504.96 591.454 504.308 591.729C499.603 593.711 494.756 595.554 489.905 597.203C489.231 597.43 488.879 598.159 489.106 598.828C489.334 599.499 490.062 599.857 490.731 599.629C495.64 597.961 500.543 596.097 505.304 594.092C505.327 594.082 505.347 594.072 505.369 594.061ZM545.909 571.47C545.973 571.439 546.034 571.402 546.095 571.36C550.327 568.331 554.472 565.11 558.414 561.79C558.955 561.335 559.024 560.526 558.568 559.984C558.112 559.444 557.31 559.37 556.763 559.828C552.873 563.106 548.782 566.283 544.603 569.274C544.029 569.686 543.896 570.485 544.307 571.062C544.677 571.578 545.358 571.739 545.909 571.47ZM476.041 604.043C476.578 603.781 476.875 603.166 476.715 602.564C476.534 601.88 475.834 601.471 475.15 601.652C470.201 602.957 465.145 604.103 460.121 605.058C459.422 605.192 458.97 605.861 459.103 606.556C459.236 607.252 459.906 607.708 460.6 607.576C465.684 606.61 470.799 605.451 475.805 604.13C475.888 604.108 475.966 604.079 476.041 604.043ZM569.589 551.503C569.712 551.443 569.827 551.362 569.93 551.26C573.626 547.589 577.194 543.737 580.534 539.807C580.992 539.268 580.926 538.46 580.388 538C579.849 537.542 579.041 537.606 578.583 538.145C575.29 542.02 571.772 545.82 568.125 549.44C567.624 549.937 567.62 550.75 568.119 551.252C568.515 551.652 569.11 551.736 569.589 551.503ZM445.601 609.836C446.078 609.604 446.378 609.088 446.311 608.532C446.227 607.829 445.588 607.327 444.886 607.412C439.832 608.015 434.664 608.461 429.526 608.735C428.819 608.772 428.278 609.377 428.317 610.082C428.355 610.788 428.959 611.332 429.665 611.293C434.859 611.018 440.084 610.566 445.193 609.956C445.339 609.939 445.476 609.897 445.601 609.836ZM589.559 527.83C589.751 527.736 589.922 527.592 590.053 527.403C593.111 522.936 595.81 518.407 598.075 513.945C598.394 513.315 598.144 512.543 597.513 512.222C596.882 511.9 596.111 512.152 595.792 512.782C593.577 517.146 590.935 521.576 587.939 525.952C587.54 526.536 587.689 527.334 588.273 527.734C588.666 528.005 589.158 528.025 589.559 527.83ZM414.656 611.498C415.079 611.292 415.371 610.861 415.376 610.358C415.382 609.65 414.814 609.071 414.107 609.064C409.021 609.012 403.836 608.8 398.694 608.432C397.987 608.381 397.377 608.913 397.327 609.619C397.277 610.325 397.809 610.938 398.515 610.988C403.708 611.359 408.946 611.574 414.084 611.627C414.289 611.628 414.483 611.582 414.656 611.498ZM672.083 470.148C672.089 470.146 672.096 470.142 672.102 470.139C677.016 467.646 681.415 464.665 685.175 461.28C685.701 460.807 685.742 459.996 685.27 459.47C684.797 458.942 683.986 458.901 683.462 459.373C679.869 462.608 675.656 465.461 670.942 467.853C670.312 468.173 670.06 468.944 670.381 469.575C670.698 470.2 671.457 470.453 672.083 470.148ZM373.011 615.456C373.43 615.252 373.723 614.824 373.73 614.324C373.761 612.232 373.765 610.134 373.743 608.034C376.839 608.55 379.939 609.012 383.011 609.415C383.712 609.507 384.355 609.013 384.446 608.311C384.537 607.61 384.043 606.966 383.342 606.874C380.147 606.455 376.921 605.971 373.702 605.429C373.654 603.186 373.576 600.947 373.469 598.726C373.435 598.02 372.835 597.473 372.129 597.507C371.424 597.54 370.877 598.141 370.912 598.847C371.01 600.881 371.083 602.93 371.131 604.984C370.12 604.804 369.111 604.618 368.104 604.427C367.409 604.295 366.74 604.752 366.608 605.447C366.477 606.142 366.934 606.814 367.629 606.945C368.809 607.169 369.992 607.386 371.178 607.595C371.206 609.826 371.203 612.06 371.17 614.283C371.159 614.991 371.724 615.574 372.431 615.585C372.639 615.588 372.836 615.541 373.011 615.456ZM657.644 475.714C658.191 475.447 658.485 474.817 658.312 474.21C658.117 473.53 657.409 473.135 656.728 473.33C652.138 474.639 647.092 475.701 641.733 476.488C641.032 476.591 640.551 477.242 640.653 477.941C640.756 478.642 641.408 479.126 642.107 479.023C647.577 478.221 652.734 477.135 657.434 475.794C657.507 475.773 657.577 475.746 657.644 475.714ZM603.382 500.185C603.687 500.037 603.933 499.767 604.043 499.417C605.662 494.24 606.726 489.049 607.204 483.985C607.271 483.28 606.754 482.655 606.05 482.587C605.345 482.519 604.721 483.037 604.655 483.74C604.193 488.627 603.166 493.642 601.6 498.649C601.388 499.323 601.764 500.043 602.439 500.256C602.763 500.358 603.098 500.324 603.382 500.185ZM694.642 449.513C694.862 449.405 695.055 449.232 695.187 449.003C697.795 444.491 699.695 439.511 700.834 434.202C700.982 433.51 700.542 432.828 699.851 432.679C699.159 432.529 698.479 432.969 698.33 433.66C697.247 438.709 695.444 443.438 692.971 447.718C692.616 448.33 692.826 449.114 693.438 449.469C693.821 449.691 694.271 449.693 694.642 449.513ZM627.051 480.414C627.501 480.195 627.799 479.722 627.769 479.192C627.729 478.484 627.125 477.943 626.419 477.981C624.5 478.087 622.499 478.169 620.472 478.226C617.196 478.318 614.008 478.353 610.997 478.329C610.29 478.322 609.713 478.892 609.708 479.6C609.703 480.308 610.273 480.886 610.98 480.892C614.022 480.917 617.24 480.882 620.547 480.788C622.596 480.73 624.62 480.648 626.562 480.541C626.737 480.531 626.903 480.487 627.051 480.414ZM353.275 603.523C353.605 603.362 353.863 603.062 353.958 602.679C354.127 601.992 353.708 601.297 353.021 601.127C348.069 599.899 343.062 598.514 338.138 597.008C337.463 596.803 336.746 597.183 336.54 597.859C336.335 598.535 336.716 599.252 337.393 599.46C342.36 600.978 347.413 602.376 352.409 603.615C352.712 603.69 353.016 603.649 353.275 603.523ZM596.059 480.058C596.45 479.867 596.733 479.482 596.775 479.016C596.835 478.311 596.314 477.69 595.609 477.628C590.251 477.157 585.133 476.434 580.399 475.48C579.706 475.341 579.032 475.79 578.892 476.483C578.754 477.178 579.204 477.854 579.896 477.993C584.723 478.966 589.935 479.701 595.388 480.181C595.627 480.202 595.858 480.156 596.059 480.058ZM371.506 584.47C371.979 584.239 372.279 583.728 372.217 583.175C371.634 578.013 370.877 572.818 369.967 567.734C369.842 567.037 369.177 566.572 368.482 566.697C367.783 566.824 367.322 567.486 367.447 568.182C368.347 573.213 369.096 578.353 369.672 583.459C369.752 584.163 370.385 584.67 371.088 584.591C371.238 584.574 371.378 584.532 371.506 584.47ZM606.076 469.543C606.567 469.304 606.867 468.764 606.778 468.194C605.973 463.046 604.499 457.937 602.395 453.011C602.117 452.36 601.365 452.056 600.715 452.334C600.04 452.601 599.763 453.365 600.041 454.015C602.061 458.746 603.477 463.649 604.249 468.588C604.358 469.287 605.013 469.766 605.711 469.657C605.841 469.637 605.963 469.598 606.076 469.543ZM701.295 419.653C701.744 419.435 702.042 418.964 702.013 418.433C701.735 413.287 700.843 408.053 699.362 402.875C699.168 402.195 698.459 401.801 697.779 401.995C697.099 402.191 696.706 402.897 696.9 403.578C698.328 408.571 699.189 413.614 699.456 418.568C699.494 419.275 700.097 419.817 700.803 419.78C700.98 419.771 701.146 419.726 701.295 419.653ZM323.618 594.46C323.906 594.319 324.142 594.072 324.26 593.747C324.501 593.081 324.158 592.346 323.493 592.104C318.683 590.351 313.847 588.446 309.12 586.44C308.47 586.163 307.718 586.467 307.442 587.12C307.167 587.771 307.472 588.523 308.124 588.8C312.891 590.822 317.768 592.744 322.62 594.512C322.959 594.635 323.317 594.606 323.618 594.46ZM565.773 473.748C566.062 473.607 566.298 473.36 566.415 473.035C566.657 472.369 566.314 471.633 565.649 471.392C560.699 469.589 556.067 467.391 551.88 464.86C551.275 464.493 550.489 464.687 550.123 465.293C549.758 465.9 549.952 466.687 550.558 467.053C554.887 469.671 559.67 471.941 564.775 473.8C565.114 473.923 565.473 473.894 565.773 473.748ZM366.035 553.929C366.566 553.671 366.863 553.068 366.715 552.47C365.465 547.425 364.031 542.373 362.457 537.454C362.241 536.78 361.52 536.408 360.847 536.623C360.174 536.847 359.803 537.56 360.018 538.234C361.576 543.098 362.993 548.095 364.23 553.084C364.401 553.772 365.095 554.191 365.781 554.022C365.87 553.999 365.955 553.968 366.035 553.929ZM594.07 441.23C594.139 441.197 594.207 441.155 594.271 441.108C594.839 440.686 594.958 439.885 594.538 439.315C591.383 435.052 587.75 431.177 583.74 427.798C583.198 427.342 582.392 427.408 581.936 427.952C581.482 428.493 581.551 429.301 582.093 429.758C585.95 433.008 589.445 436.736 592.48 440.839C592.854 441.343 593.527 441.495 594.07 441.23ZM692.91 389.997C692.922 389.991 692.934 389.985 692.947 389.979C693.571 389.649 693.811 388.874 693.482 388.248C690.998 383.532 688.05 379.122 684.721 375.138C684.267 374.596 683.462 374.522 682.918 374.976C682.375 375.429 682.304 376.238 682.758 376.781C685.972 380.626 688.817 384.886 691.216 389.441C691.54 390.055 692.291 390.298 692.91 389.997ZM295.062 582.346C295.311 582.224 295.522 582.023 295.652 581.755C295.961 581.119 295.697 580.352 295.06 580.042C290.347 577.741 285.749 575.326 281.393 572.861C280.778 572.513 279.995 572.731 279.649 573.345C279.301 573.962 279.52 574.744 280.135 575.092C284.536 577.582 289.181 580.022 293.94 582.345C294.308 582.524 294.721 582.512 295.062 582.346ZM539.563 457.612C539.678 457.556 539.787 457.481 539.885 457.388C540.397 456.9 540.416 456.088 539.928 455.576C537.103 452.608 534.705 449.184 532.995 445.674C532.567 444.796 532.18 443.906 531.843 443.028C531.588 442.368 530.848 442.038 530.188 442.291C529.514 442.56 529.199 443.286 529.453 443.946C529.817 444.893 530.235 445.851 530.695 446.794C532.519 450.538 535.07 454.187 538.075 457.343C538.471 457.758 539.075 457.85 539.563 457.612ZM570.509 421.48C570.758 421.358 570.969 421.155 571.099 420.885C571.406 420.249 571.14 419.483 570.503 419.174C568.502 418.204 566.437 417.341 564.366 416.608C561.435 415.571 558.405 414.85 555.36 414.464C554.657 414.376 554.017 414.873 553.93 415.574C553.842 416.276 554.34 416.918 555.041 417.007C557.905 417.369 560.756 418.049 563.515 419.024C565.497 419.726 567.473 420.553 569.389 421.48C569.757 421.659 570.168 421.645 570.509 421.48ZM356.524 524.398C357.123 524.106 357.402 523.394 357.147 522.765C355.59 518.928 353.919 515.175 352.183 511.61C351.682 510.583 351.171 509.561 350.651 508.546C350.332 507.924 349.576 507.673 348.951 507.977C348.943 507.981 348.935 507.985 348.927 507.989C348.298 508.312 348.05 509.084 348.373 509.713C348.886 510.714 349.389 511.72 349.882 512.731C351.593 516.245 353.24 519.944 354.775 523.727C355.042 524.383 355.789 524.699 356.443 524.434C356.471 524.423 356.498 524.411 356.524 524.398ZM268.088 567.038C268.286 566.941 268.462 566.79 268.594 566.592C268.983 566.002 268.82 565.206 268.23 564.817C263.865 561.932 259.652 558.908 255.706 555.826C255.149 555.392 254.345 555.493 253.91 556.048C253.475 556.605 253.575 557.411 254.133 557.846C258.132 560.969 262.4 564.034 266.82 566.955C267.212 567.214 267.694 567.229 268.088 567.038ZM673.341 366.149C673.496 366.073 673.638 365.965 673.757 365.826C674.213 365.286 674.146 364.478 673.606 364.019C669.763 360.759 665.499 357.647 660.935 354.773C660.336 354.397 659.546 354.577 659.17 355.174C658.794 355.773 658.974 356.564 659.573 356.941C664.035 359.752 668.2 362.791 671.952 365.973C672.353 366.313 672.899 366.364 673.341 366.149ZM530.221 429.45C530.522 429.304 530.766 429.039 530.877 428.694C531.407 427.056 532.2 425.513 533.236 424.109C535.032 421.672 537.508 419.785 540.45 418.548C541.111 418.241 541.408 417.523 541.134 416.87C540.859 416.218 540.109 415.91 539.457 416.184C536.077 417.6 533.247 419.774 531.175 422.586C529.975 424.213 529.055 426.002 528.442 427.903C528.223 428.576 528.592 429.299 529.265 429.517C529.594 429.624 529.933 429.59 530.221 429.45ZM243.681 547.914C243.818 547.847 243.945 547.755 244.055 547.637C244.538 547.12 244.51 546.309 243.993 545.826C240.2 542.276 236.598 538.558 233.286 534.774C232.82 534.241 232.012 534.188 231.479 534.653C230.947 535.119 230.895 535.929 231.361 536.462C234.728 540.309 238.391 544.089 242.246 547.696C242.644 548.07 243.218 548.139 243.681 547.914ZM647.232 349.522C647.482 349.4 647.694 349.197 647.824 348.927C648.13 348.29 647.862 347.524 647.225 347.216C642.785 345.071 637.955 343 632.868 341.057C632.208 340.805 631.467 341.137 631.217 341.797C630.965 342.458 631.297 343.199 631.959 343.451C636.977 345.368 641.739 347.411 646.114 349.524C646.482 349.702 646.892 349.688 647.232 349.522ZM342.3 496.85C342.347 496.827 342.394 496.801 342.439 496.77C343.031 496.384 343.198 495.591 342.811 494.997C339.89 490.52 336.75 486.284 333.477 482.407C333.02 481.868 332.214 481.797 331.673 482.255C331.133 482.711 331.065 483.519 331.522 484.06C334.727 487.857 337.804 492.007 340.668 496.396C341.025 496.943 341.727 497.129 342.3 496.85ZM618.308 338.351C618.613 338.203 618.86 337.933 618.969 337.581C619.18 336.906 618.802 336.187 618.128 335.976C615.637 335.197 612.984 334.405 610.243 333.622C607.873 332.945 605.493 332.287 603.171 331.665C602.49 331.484 601.787 331.889 601.605 332.572C601.423 333.255 601.83 333.958 602.513 334.141C604.821 334.76 607.186 335.414 609.544 336.086C612.264 336.864 614.896 337.65 617.366 338.423C617.691 338.524 618.025 338.489 618.308 338.351ZM223.513 524.414C223.556 524.392 223.599 524.369 223.64 524.342C224.236 523.963 224.413 523.171 224.033 522.574C222.372 519.959 220.876 517.291 219.586 514.644C218.666 512.757 217.839 510.852 217.127 508.984C216.875 508.322 216.135 507.99 215.474 508.241C214.81 508.496 214.482 509.233 214.735 509.895C215.475 511.835 216.333 513.81 217.285 515.765C218.617 518.498 220.16 521.25 221.873 523.947C222.226 524.503 222.935 524.695 223.513 524.414ZM322.253 473.264C322.399 473.193 322.534 473.092 322.648 472.963C323.118 472.434 323.069 471.624 322.54 471.154C319.801 468.718 316.928 466.429 313.999 464.351C312.707 463.433 311.36 462.535 309.997 461.682C309.396 461.306 308.608 461.491 308.233 462.089C307.859 462.689 308.042 463.48 308.642 463.855C309.963 464.681 311.267 465.551 312.519 466.441C315.372 468.465 318.172 470.695 320.841 473.069C321.241 473.425 321.8 473.485 322.253 473.264ZM588.352 330.31C588.687 330.146 588.949 329.837 589.039 329.445C589.197 328.754 588.765 328.067 588.076 327.909C583.042 326.751 577.923 325.668 572.857 324.689C572.163 324.556 571.491 325.01 571.359 325.705C571.226 326.399 571.682 327.071 572.375 327.205C577.411 328.178 582.501 329.255 587.505 330.406C587.802 330.475 588.098 330.433 588.352 330.31ZM296.042 456.945C296.32 456.81 296.55 456.575 296.671 456.264C296.93 455.606 296.607 454.861 295.949 454.602C291.042 452.664 285.963 451.18 280.853 450.186C280.159 450.051 279.488 450.504 279.353 451.2C279.219 451.895 279.674 452.567 280.368 452.702C285.324 453.666 290.251 455.107 295.012 456.986C295.359 457.122 295.73 457.097 296.042 456.945ZM212.987 495.523C213.443 495.301 213.742 494.817 213.703 494.279C213.323 489.019 213.97 484.062 215.625 479.545C215.868 478.881 215.527 478.145 214.863 477.9C214.2 477.656 213.464 477.997 213.221 478.661C211.44 483.519 210.743 488.836 211.149 494.461C211.201 495.167 211.813 495.698 212.519 495.648C212.686 495.637 212.844 495.593 212.987 495.523ZM557.9 324.426C558.264 324.249 558.538 323.902 558.605 323.472C558.714 322.772 558.236 322.117 557.537 322.006C552.449 321.206 547.267 320.484 542.132 319.861C541.427 319.776 540.792 320.277 540.708 320.979C540.624 321.681 541.125 322.32 541.826 322.405C546.931 323.025 552.085 323.743 557.142 324.538C557.411 324.581 557.673 324.537 557.9 324.426ZM265.758 451.134C266.187 450.925 266.481 450.484 266.476 449.974C266.472 449.266 265.894 448.696 265.187 448.7C259.81 448.733 254.544 449.347 249.537 450.525C248.849 450.687 248.422 451.375 248.585 452.065C248.747 452.754 249.437 453.182 250.124 453.02C254.947 451.886 260.021 451.295 265.206 451.263C265.404 451.262 265.591 451.216 265.758 451.134ZM527.114 320.684C527.505 320.494 527.789 320.107 527.829 319.642C527.889 318.936 527.366 318.315 526.663 318.254C521.531 317.811 516.311 317.452 511.146 317.186C510.44 317.15 509.838 317.694 509.803 318.4C509.768 319.108 510.312 319.71 511.018 319.746C516.153 320.01 521.343 320.368 526.445 320.807C526.684 320.829 526.913 320.782 527.114 320.684ZM223.396 467.378C223.519 467.318 223.636 467.237 223.739 467.134C225.987 464.891 228.617 462.786 231.554 460.875C232.966 459.958 234.442 459.09 235.943 458.297C236.568 457.967 236.807 457.192 236.476 456.566C236.145 455.94 235.377 455.685 234.746 456.031C233.177 456.86 231.633 457.767 230.158 458.726C227.072 460.732 224.304 462.95 221.93 465.317C221.43 465.816 221.429 466.627 221.928 467.129C222.325 467.528 222.918 467.611 223.396 467.378ZM496.146 319.093C496.566 318.889 496.857 318.46 496.865 317.961C496.876 317.254 496.311 316.67 495.604 316.659C490.445 316.573 485.213 316.577 480.054 316.67C479.349 316.684 478.786 317.267 478.799 317.975C478.813 318.682 479.397 319.245 480.104 319.233C485.233 319.14 490.435 319.135 495.565 319.221C495.773 319.225 495.97 319.179 496.146 319.093ZM465.143 319.656C465.592 319.437 465.889 318.966 465.86 318.436C465.823 317.728 465.218 317.186 464.513 317.224C459.364 317.496 454.145 317.865 449.002 318.317C448.301 318.38 447.778 319.001 447.84 319.707C447.903 320.412 448.525 320.933 449.229 320.871C454.344 320.42 459.533 320.055 464.651 319.783C464.828 319.774 464.994 319.729 465.143 319.656ZM434.26 322.38C434.739 322.146 435.038 321.628 434.969 321.07C434.882 320.368 434.242 319.868 433.54 319.954C428.421 320.587 423.241 321.32 418.145 322.134C417.448 322.248 416.971 322.902 417.084 323.601C417.197 324.3 417.853 324.776 418.551 324.665C423.618 323.855 428.768 323.127 433.857 322.498C434.001 322.48 434.137 322.44 434.26 322.38Z" fill="#D3D3D3"/>
</g>
<mask id="mask2_45_175" style="mask-type:luminance" maskUnits="userSpaceOnUse" x="0" y="0" width="918" height="919">
<path d="M302.056 918.459L917.202 618.776L616.057 0.629435L0.910449 300.313L302.056 918.459Z" fill="white"/>
</mask>
<g mask="url(#mask2_45_175)">
<path fill-rule="evenodd" clip-rule="evenodd" d="M371.544 638.812C371.926 638.626 372.206 638.255 372.257 637.801C372.538 635.263 372.784 632.674 372.987 630.105C373.043 629.4 372.516 628.782 371.811 628.725C371.107 628.67 370.491 629.195 370.434 629.9C370.233 632.442 369.99 635.005 369.712 637.516C369.634 638.219 370.14 638.853 370.843 638.932C371.093 638.96 371.334 638.914 371.544 638.812Z" fill="#D3D3D3"/>
</g>
</svg>
