<svg width="23" height="23" viewBox="0 0 23 23" fill="none" xmlns="http://www.w3.org/2000/svg">
<path d="M10.3781 1.09505C10.6487 0.984831 10.8844 0.978006 11.1752 0.978328C11.2236 0.97824 11.2719 0.97815 11.3217 0.978059C11.4834 0.977887 11.6452 0.97846 11.8069 0.979029C11.9229 0.979058 12.039 0.979043 12.155 0.978984C12.4699 0.978954 12.7848 0.979566 13.0997 0.980293C13.4289 0.980944 13.758 0.981006 14.0872 0.98113C14.7104 0.981453 15.3336 0.982309 15.9568 0.983354C16.6664 0.984518 17.3759 0.985091 18.0854 0.985614C19.545 0.986703 21.0045 0.988536 22.464 0.990858C22.5743 1.2615 22.5811 1.49714 22.5808 1.78798C22.5808 1.83632 22.5809 1.88466 22.581 1.93447C22.5812 2.09621 22.5806 2.25793 22.5801 2.41967C22.58 2.53571 22.58 2.65175 22.5801 2.76778C22.5801 3.08269 22.5795 3.3976 22.5788 3.7125C22.5781 4.04164 22.5781 4.37078 22.578 4.69992C22.5776 5.32314 22.5768 5.94637 22.5757 6.56959C22.5746 7.27913 22.574 7.98866 22.5735 8.6982C22.5724 10.1577 22.5705 11.6173 22.5682 13.0768C22.2507 13.1943 21.9505 13.1987 21.6153 13.2003C21.5228 13.201 21.5228 13.201 21.4285 13.2017C21.2986 13.2025 21.1687 13.203 21.0388 13.2032C20.8395 13.2038 20.6403 13.2063 20.441 13.209C20.3147 13.2095 20.1885 13.2098 20.0622 13.2101C20.0024 13.2111 19.9427 13.2121 19.8811 13.2132C19.7136 13.2122 19.7136 13.2122 19.4426 13.181C18.3255 11.3192 19.2863 8.8404 19.2863 6.66916C13.9742 11.9469 8.6621 17.2246 3.18905 22.6622C2.43264 21.9058 1.67622 21.1494 0.896888 20.37C8.81344 12.4019 8.81344 12.4019 16.8899 4.27281C14.7926 4.27281 12.6953 4.27281 10.5344 4.27281C10.386 4.02559 10.3586 3.97887 10.3604 3.71497C10.3604 3.65659 10.3604 3.5982 10.3604 3.53804C10.3612 3.47558 10.362 3.41311 10.3628 3.34875C10.3631 3.28436 10.3633 3.21998 10.3635 3.15364C10.3644 2.94822 10.3663 2.74283 10.3683 2.53741C10.3691 2.39806 10.3698 2.2587 10.3705 2.11934C10.3722 1.7779 10.3749 1.43648 10.3781 1.09505Z" fill="#E1E1E1"/>
</svg>
